<svg version="1.1" viewBox="0.0 0.0 1346.758530183727 365.997375328084" fill="none" stroke="none" stroke-linecap="square" stroke-miterlimit="10" xmlns:xlink="http://www.w3.org/1999/xlink" xmlns="http://www.w3.org/2000/svg"><clipPath id="p.0"><path d="m0 0l1346.7585 0l0 365.99738l-1346.7585 0l0 -365.99738z" clip-rule="nonzero"/></clipPath><g clip-path="url(#p.0)"><path fill="#000000" fill-opacity="0.0" d="m0 0l1346.7585 0l0 365.99738l-1346.7585 0z" fill-rule="evenodd"/><path fill="#4bb9f4" d="m0 0l1346.8031 0l0 365.98425l-1346.8031 0z" fill-rule="evenodd"/><path stroke="#4bb9f4" stroke-width="1.0" stroke-linejoin="round" stroke-linecap="butt" d="m0 0l1346.8031 0l0 365.98425l-1346.8031 0z" fill-rule="evenodd"/><path fill="#ffcb05" d="m0 15.734908l1346.8031 0l0 86.173225l-1346.8031 0z" fill-rule="evenodd"/><path stroke="#ffcb05" stroke-width="1.0" stroke-linejoin="round" stroke-linecap="butt" d="m0 15.734908l1346.8031 0l0 86.173225l-1346.8031 0z" fill-rule="evenodd"/><path fill="#000000" fill-opacity="0.0" d="m0 7.734908l1346.8031 0l0 86.173225l-1346.8031 0z" fill-rule="evenodd"/><path fill="#00274c" d="m441.92783 85.55928q-6.0 0 -11.65625 -1.484375q-5.65625 -1.484375 -9.1875 -3.953125l4.59375 -10.3125q3.3125 2.1875 7.6875 3.53125q4.390625 1.34375 8.625 1.34375q8.0625 0 8.0625 -4.03125q0 -2.109375 -2.296875 -3.140625q-2.296875 -1.03125 -7.390625 -2.15625q-5.578125 -1.203125 -9.328125 -2.578125q-3.734375 -1.375 -6.421875 -4.40625q-2.6875 -3.046875 -2.6875 -8.203125q0 -4.53125 2.46875 -8.15625q2.484375 -3.640625 7.390625 -5.765625q4.90625 -2.125 12.046875 -2.125q4.875 0 9.609375 1.09375q4.734375 1.09375 8.34375 3.21875l-4.3125 10.390625q-7.0625 -3.8125 -13.703125 -3.8125q-4.171875 0 -6.078125 1.234375q-1.90625 1.234375 -1.90625 3.21875q0 1.96875 2.25 2.96875q2.265625 0.984375 7.28125 2.046875q5.65625 1.203125 9.359375 2.578125q3.71875 1.375 6.4375 4.375q2.71875 3.0 2.71875 8.15625q0 4.453125 -2.484375 8.0625q-2.46875 3.59375 -7.421875 5.75q-4.9375 2.15625 -12.0 2.15625zm51.15213 0q-11.015625 0 -17.140625 -6.0q-6.109375 -6.0 -6.109375 -17.03125l0 -27.40625l14.0 0l0 26.984375q0 11.875 9.390625 11.875q9.328125 0 9.328125 -11.875l0 -26.984375l13.78125 0l0 27.40625q0 11.03125 -6.109375 17.03125q-6.109375 6.0 -17.140625 6.0zm55.332764 -50.4375q6.703125 0 11.640625 2.21875q4.953125 2.21875 7.640625 6.359375q2.6875 4.140625 2.6875 9.71875q0 5.578125 -2.6875 9.6875q-2.6875 4.09375 -7.640625 6.3125q-4.9375 2.21875 -11.640625 2.21875l-8.625 0l0 12.9375l-13.984375 0l0 -49.453125l22.609375 0zm-0.859375 25.5q4.3125 0 6.5 -1.875q2.203125 -1.875 2.203125 -5.328125q0 -3.46875 -2.203125 -5.375q-2.1875 -1.90625 -6.5 -1.90625l-7.765625 0l0 14.484375l7.765625 0zm52.22638 -25.5q6.703125 0 11.640625 2.21875q4.953125 2.21875 7.640625 6.359375q2.6875 4.140625 2.6875 9.71875q0 5.578125 -2.6875 9.6875q-2.6875 4.09375 -7.640625 6.3125q-4.9375 2.21875 -11.640625 2.21875l-8.625 0l0 12.9375l-13.984375 0l0 -49.453125l22.609375 0zm-0.859375 25.5q4.3125 0 6.5 -1.875q2.203125 -1.875 2.203125 -5.328125q0 -3.46875 -2.203125 -5.375q-2.1875 -1.90625 -6.5 -1.90625l-7.765625 0l0 14.484375l7.765625 0zm55.26117 24.9375q-7.84375 0 -14.109375 -3.3125q-6.25 -3.328125 -9.8125 -9.1875q-3.5625 -5.859375 -3.5625 -13.21875q0 -7.34375 3.5625 -13.203125q3.5625 -5.875 9.8125 -9.1875q6.265625 -3.328125 14.109375 -3.328125q7.84375 0 14.09375 3.328125q6.25 3.3125 9.8125 9.1875q3.578125 5.859375 3.578125 13.203125q0 7.359375 -3.578125 13.21875q-3.5625 5.859375 -9.8125 9.1875q-6.25 3.3125 -14.09375 3.3125zm0 -11.578125q3.734375 0 6.765625 -1.765625q3.046875 -1.765625 4.8125 -4.984375q1.765625 -3.21875 1.765625 -7.390625q0 -4.15625 -1.765625 -7.375q-1.765625 -3.21875 -4.8125 -4.984375q-3.03125 -1.765625 -6.765625 -1.765625q-3.75 0 -6.796875 1.765625q-3.03125 1.765625 -4.796875 4.984375q-1.765625 3.21875 -1.765625 7.375q0 4.171875 1.765625 7.390625q1.765625 3.21875 4.796875 4.984375q3.046875 1.765625 6.796875 1.765625zm56.447144 -2.546875l-7.625 0l0 13.140625l-13.984375 0l0 -49.453125l22.609375 0q6.703125 0 11.640625 2.21875q4.953125 2.21875 7.640625 6.359375q2.6875 4.140625 2.6875 9.71875q0 5.359375 -2.515625 9.359375q-2.5 3.984375 -7.171875 6.25l10.671875 15.546875l-14.96875 0l-8.984375 -13.140625zm8.84375 -18.015625q0 -3.46875 -2.203125 -5.375q-2.1875 -1.90625 -6.5 -1.90625l-7.765625 0l0 14.484375l7.765625 0q4.3125 0 6.5 -1.875q2.203125 -1.875 2.203125 -5.328125zm31.64148 -7.203125l-15.1875 0l0 -11.09375l44.296875 0l0 11.09375l-15.109375 0l0 38.359375l-14.0 0l0 -38.359375zm68.896484 -0.296875l0 10.890625l21.828125 0l0 10.8125l-21.828125 0l0 16.953125l-13.984375 0l0 -49.453125l38.78125 0l0 10.796875l-24.796875 0zm41.11377 39.640625q-5.4375 0 -9.890625 -1.859375q-4.453125 -1.875 -7.265625 -5.40625l7.625 -9.046875q3.953125 5.15625 8.546875 5.15625q3.046875 0 4.625 -1.828125q1.59375 -1.84375 1.59375 -5.375l0 -21.28125l-17.09375 0l0 -10.796875l30.9375 0l0 31.21875q0 9.609375 -4.84375 14.421875q-4.828125 4.796875 -14.234375 4.796875zm51.16809 -50.4375q6.703125 0 11.640625 2.21875q4.953125 2.21875 7.640625 6.359375q2.6875 4.140625 2.6875 9.71875q0 5.578125 -2.6875 9.6875q-2.6875 4.09375 -7.640625 6.3125q-4.9375 2.21875 -11.640625 2.21875l-8.625 0l0 12.9375l-13.984375 0l0 -49.453125l22.609375 0zm-0.859375 25.5q4.3125 0 6.5 -1.875q2.203125 -1.875 2.203125 -5.328125q0 -3.46875 -2.203125 -5.375q-2.1875 -1.90625 -6.5 -1.90625l-7.765625 0l0 14.484375l7.765625 0z" fill-rule="nonzero"/><path fill="#000000" fill-opacity="0.0" d="m0 101.908134l1344.0 0l0 216.40945l-1344.0 0z" fill-rule="evenodd"/><path fill="#00274c" d="m96.16122 121.308136l-9.15625 28.0l-6.96875 0l-6.15625 -18.953125l-6.359375 18.953125l-6.921875 0l-9.203125 -28.0l6.71875 0l6.328125 19.6875l6.59375 -19.6875l6.0 0l6.40625 19.84375l6.515625 -19.84375l6.203125 0zm22.632462 17.3125q0 0.125 -0.109375 1.6875l-16.28125 0q0.4375 2.0 2.078125 3.15625q1.640625 1.15625 4.078125 1.15625q1.6875 0 2.984375 -0.5q1.296875 -0.5 2.421875 -1.578125l3.3125 3.609375q-3.03125 3.46875 -8.875 3.46875q-3.640625 0 -6.453125 -1.40625q-2.796875 -1.421875 -4.3125 -3.9375q-1.515625 -2.53125 -1.515625 -5.734375q0 -3.15625 1.5 -5.6875q1.5 -2.546875 4.109375 -3.96875q2.625 -1.421875 5.875 -1.421875q3.15625 0 5.71875 1.359375q2.5625 1.359375 4.015625 3.90625q1.453125 2.53125 1.453125 5.890625zm-11.15625 -6.4375q-2.109375 0 -3.5625 1.203125q-1.4375 1.203125 -1.75 3.28125l10.59375 0q-0.3125 -2.046875 -1.765625 -3.265625q-1.4375 -1.21875 -3.515625 -1.21875zm35.325584 -4.71875q5.0 0 7.671875 2.390625q2.6875 2.375 2.6875 7.171875l0 12.28125l-5.84375 0l0 -2.6875q-1.765625 3.0 -6.5625 3.0q-2.46875 0 -4.296875 -0.828125q-1.8125 -0.84375 -2.78125 -2.3125q-0.953125 -1.484375 -0.953125 -3.375q0 -3.0 2.25 -4.71875q2.265625 -1.71875 6.984375 -1.71875l4.96875 0q0 -2.046875 -1.25 -3.140625q-1.234375 -1.09375 -3.71875 -1.09375q-1.71875 0 -3.375 0.546875q-1.65625 0.53125 -2.828125 1.453125l-2.234375 -4.359375q1.765625 -1.25 4.21875 -1.921875q2.453125 -0.6875 5.0625 -0.6875zm-0.484375 17.96875q1.609375 0 2.84375 -0.734375q1.234375 -0.75 1.765625 -2.1875l0 -2.203125l-4.28125 0q-3.84375 0 -3.84375 2.515625q0 1.203125 0.9375 1.90625q0.9375 0.703125 2.578125 0.703125zm22.445618 -14.8125q1.109375 -1.546875 3.015625 -2.34375q1.90625 -0.8125 4.375 -0.8125l0 5.765625q-1.03125 -0.078125 -1.390625 -0.078125q-2.6875 0 -4.203125 1.5q-1.515625 1.5 -1.515625 4.5l0 10.15625l-6.25 0l0 -21.515625l5.96875 0l0 2.828125zm31.98935 8.0q0 0.125 -0.109375 1.6875l-16.28125 0q0.4375 2.0 2.078125 3.15625q1.640625 1.15625 4.078125 1.15625q1.6875 0 2.984375 -0.5q1.296875 -0.5 2.421875 -1.578125l3.3125 3.609375q-3.03125 3.46875 -8.875 3.46875q-3.640625 0 -6.453125 -1.40625q-2.796875 -1.421875 -4.3125 -3.9375q-1.515625 -2.53125 -1.515625 -5.734375q0 -3.15625 1.5 -5.6875q1.5 -2.546875 4.109375 -3.96875q2.625 -1.421875 5.875 -1.421875q3.15625 0 5.71875 1.359375q2.5625 1.359375 4.015625 3.90625q1.453125 2.53125 1.453125 5.890625zm-11.15625 -6.4375q-2.109375 0 -3.5625 1.203125q-1.4375 1.203125 -1.75 3.28125l10.59375 0q-0.3125 -2.046875 -1.765625 -3.265625q-1.4375 -1.21875 -3.515625 -1.21875zm35.325592 -4.71875q5.0 0 7.671875 2.390625q2.6875 2.375 2.6875 7.171875l0 12.28125l-5.84375 0l0 -2.6875q-1.765625 3.0 -6.5625 3.0q-2.46875 0 -4.296875 -0.828125q-1.8125 -0.84375 -2.78125 -2.3125q-0.953125 -1.484375 -0.953125 -3.375q0 -3.0 2.25 -4.71875q2.265625 -1.71875 6.984375 -1.71875l4.96875 0q0 -2.046875 -1.25 -3.140625q-1.234375 -1.09375 -3.71875 -1.09375q-1.71875 0 -3.375 0.546875q-1.65625 0.53125 -2.828125 1.453125l-2.234375 -4.359375q1.765625 -1.25 4.21875 -1.921875q2.453125 -0.6875 5.0625 -0.6875zm-0.484375 17.96875q1.609375 0 2.84375 -0.734375q1.234375 -0.75 1.765625 -2.1875l0 -2.203125l-4.28125 0q-3.84375 0 -3.84375 2.515625q0 1.203125 0.9375 1.90625q0.9375 0.703125 2.578125 0.703125zm29.554993 -17.96875q4.0 0 6.453125 2.40625q2.46875 2.390625 2.46875 7.125l0 12.3125l-6.234375 0l0 -11.359375q0 -2.5625 -1.125 -3.8125q-1.109375 -1.265625 -3.234375 -1.265625q-2.359375 0 -3.765625 1.46875q-1.390625 1.453125 -1.390625 4.328125l0 10.640625l-6.25 0l0 -21.515625l5.96875 0l0 2.515625q1.234375 -1.359375 3.078125 -2.09375q1.84375 -0.75 4.03125 -0.75zm25.881836 0.328125l6.25 0l0 21.515625l-6.25 0l0 -21.515625zm3.125 -3.0q-1.71875 0 -2.796875 -1.0q-1.078125 -1.0 -1.078125 -2.484375q0 -1.484375 1.078125 -2.484375q1.078125 -1.0 2.796875 -1.0q1.71875 0 2.796875 0.96875q1.078125 0.953125 1.078125 2.390625q0 1.5625 -1.078125 2.59375q-1.078125 1.015625 -2.796875 1.015625zm21.993103 2.671875q4.0 0 6.453125 2.40625q2.46875 2.390625 2.46875 7.125l0 12.3125l-6.234375 0l0 -11.359375q0 -2.5625 -1.125 -3.8125q-1.109375 -1.265625 -3.234375 -1.265625q-2.359375 0 -3.765625 1.46875q-1.390625 1.453125 -1.390625 4.328125l0 10.640625l-6.25 0l0 -21.515625l5.96875 0l0 2.515625q1.234375 -1.359375 3.078125 -2.09375q1.84375 -0.75 4.03125 -0.75zm36.723724 -7.84375l0 29.6875l-5.953125 0l0 -2.484375q-2.328125 2.796875 -6.71875 2.796875q-3.046875 0 -5.515625 -1.359375q-2.453125 -1.359375 -3.859375 -3.875q-1.390625 -2.515625 -1.390625 -5.84375q0 -3.3125 1.390625 -5.828125q1.40625 -2.53125 3.859375 -3.890625q2.46875 -1.359375 5.515625 -1.359375q4.109375 0 6.4375 2.609375l0 -10.453125l6.234375 0zm-11.59375 24.890625q2.359375 0 3.921875 -1.625q1.5625 -1.625 1.5625 -4.34375q0 -2.71875 -1.5625 -4.328125q-1.5625 -1.625 -3.921875 -1.625q-2.40625 0 -3.96875 1.625q-1.546875 1.609375 -1.546875 4.328125q0 2.71875 1.546875 4.34375q1.5625 1.625 3.96875 1.625zm38.429993 -5.890625q0 0.125 -0.109375 1.6875l-16.28125 0q0.4375 2.0 2.078125 3.15625q1.640625 1.15625 4.078125 1.15625q1.6875 0 2.984375 -0.5q1.296875 -0.5 2.421875 -1.578125l3.3125 3.609375q-3.03125 3.46875 -8.875 3.46875q-3.640625 0 -6.453125 -1.40625q-2.796875 -1.421875 -4.3125 -3.9375q-1.515625 -2.53125 -1.515625 -5.734375q0 -3.15625 1.5 -5.6875q1.5 -2.546875 4.109375 -3.96875q2.625 -1.421875 5.875 -1.421875q3.15625 0 5.71875 1.359375q2.5625 1.359375 4.015625 3.90625q1.453125 2.53125 1.453125 5.890625zm-11.15625 -6.4375q-2.109375 0 -3.5625 1.203125q-1.4375 1.203125 -1.75 3.28125l10.59375 0q-0.3125 -2.046875 -1.765625 -3.265625q-1.4375 -1.21875 -3.515625 -1.21875zm28.036865 -4.71875q3.0 0 5.453125 1.390625q2.46875 1.375 3.859375 3.875q1.40625 2.5 1.40625 5.8125q0 3.328125 -1.40625 5.828125q-1.390625 2.5 -3.859375 3.875q-2.453125 1.375 -5.453125 1.375q-4.109375 0 -6.46875 -2.59375l0 10.046875l-6.25 0l0 -29.28125l5.96875 0l0 2.46875q2.3125 -2.796875 6.75 -2.796875zm-1.078125 17.046875q2.40625 0 3.9375 -1.625q1.546875 -1.625 1.546875 -4.34375q0 -2.71875 -1.546875 -4.328125q-1.53125 -1.625 -3.9375 -1.625q-2.390625 0 -3.9375 1.625q-1.53125 1.609375 -1.53125 4.328125q0 2.71875 1.53125 4.34375q1.546875 1.625 3.9375 1.625zm37.037476 -5.890625q0 0.125 -0.109375 1.6875l-16.28125 0q0.4375 2.0 2.078125 3.15625q1.640625 1.15625 4.078125 1.15625q1.6875 0 2.984375 -0.5q1.296875 -0.5 2.421875 -1.578125l3.3125 3.609375q-3.03125 3.46875 -8.875 3.46875q-3.640625 0 -6.453125 -1.40625q-2.796875 -1.421875 -4.3125 -3.9375q-1.515625 -2.53125 -1.515625 -5.734375q0 -3.15625 1.5 -5.6875q1.5 -2.546875 4.109375 -3.96875q2.625 -1.421875 5.875 -1.421875q3.15625 0 5.71875 1.359375q2.5625 1.359375 4.015625 3.90625q1.453125 2.53125 1.453125 5.890625zm-11.15625 -6.4375q-2.109375 0 -3.5625 1.203125q-1.4375 1.203125 -1.75 3.28125l10.59375 0q-0.3125 -2.046875 -1.765625 -3.265625q-1.4375 -1.21875 -3.515625 -1.21875zm28.39624 -4.71875q4.0 0 6.453125 2.40625q2.46875 2.390625 2.46875 7.125l0 12.3125l-6.234375 0l0 -11.359375q0 -2.5625 -1.125 -3.8125q-1.109375 -1.265625 -3.234375 -1.265625q-2.359375 0 -3.765625 1.46875q-1.390625 1.453125 -1.390625 4.328125l0 10.640625l-6.25 0l0 -21.515625l5.96875 0l0 2.515625q1.234375 -1.359375 3.078125 -2.09375q1.84375 -0.75 4.03125 -0.75zm36.723724 -7.84375l0 29.6875l-5.953125 0l0 -2.484375q-2.328125 2.796875 -6.71875 2.796875q-3.046875 0 -5.515625 -1.359375q-2.453125 -1.359375 -3.859375 -3.875q-1.390625 -2.515625 -1.390625 -5.84375q0 -3.3125 1.390625 -5.828125q1.40625 -2.53125 3.859375 -3.890625q2.46875 -1.359375 5.515625 -1.359375q4.109375 0 6.4375 2.609375l0 -10.453125l6.234375 0zm-11.59375 24.890625q2.359375 0 3.921875 -1.625q1.5625 -1.625 1.5625 -4.34375q0 -2.71875 -1.5625 -4.328125q-1.5625 -1.625 -3.921875 -1.625q-2.40625 0 -3.96875 1.625q-1.546875 1.609375 -1.546875 4.328125q0 2.71875 1.546875 4.34375q1.5625 1.625 3.96875 1.625zm38.429962 -5.890625q0 0.125 -0.109375 1.6875l-16.28125 0q0.4375 2.0 2.078125 3.15625q1.640625 1.15625 4.078125 1.15625q1.6875 0 2.984375 -0.5q1.296875 -0.5 2.421875 -1.578125l3.3125 3.609375q-3.03125 3.46875 -8.875 3.46875q-3.640625 0 -6.453125 -1.40625q-2.796875 -1.421875 -4.3125 -3.9375q-1.515625 -2.53125 -1.515625 -5.734375q0 -3.15625 1.5 -5.6875q1.5 -2.546875 4.109375 -3.96875q2.625 -1.421875 5.875 -1.421875q3.15625 0 5.71875 1.359375q2.5625 1.359375 4.015625 3.90625q1.453125 2.53125 1.453125 5.890625zm-11.15625 -6.4375q-2.109375 0 -3.5625 1.203125q-1.4375 1.203125 -1.75 3.28125l10.59375 0q-0.3125 -2.046875 -1.765625 -3.265625q-1.4375 -1.21875 -3.515625 -1.21875zm28.39627 -4.71875q4.0 0 6.453125 2.40625q2.46875 2.390625 2.46875 7.125l0 12.3125l-6.234375 0l0 -11.359375q0 -2.5625 -1.125 -3.8125q-1.109375 -1.265625 -3.234375 -1.265625q-2.3594055 0 -3.7656555 1.46875q-1.390625 1.453125 -1.390625 4.328125l0 10.640625l-6.25 0l0 -21.515625l5.96875 0l0 2.515625q1.234375 -1.359375 3.078125 -2.09375q1.8437805 -0.75 4.0312805 -0.75zm28.452393 20.796875q-0.921875 0.6875 -2.265625 1.03125q-1.34375 0.328125 -2.8125 0.328125q-3.84375 0 -5.953125 -1.953125q-2.09375 -1.953125 -2.09375 -5.765625l0 -8.828125l-3.328125 0l0 -4.8125l3.328125 0l0 -5.234375l6.234375 0l0 5.234375l5.359375 0l0 4.8125l-5.359375 0l0 8.75q0 1.359375 0.703125 2.109375q0.703125 0.734375 1.984375 0.734375q1.484375 0 2.515625 -0.796875l1.6875 4.390625zm6.315613 -6.390625q1.671875 0 2.75 1.0625q1.09375 1.0625 1.09375 2.78125q0 0.796875 -0.203125 1.59375q-0.203125 0.796875 -0.875 2.40625l-2.28125 5.75l-3.96875 0l1.765625 -6.359375q-1.0 -0.390625 -1.578125 -1.296875q-0.578125 -0.90625 -0.578125 -2.09375q0 -1.71875 1.09375 -2.78125q1.09375 -1.0625 2.78125 -1.0625zm26.643738 7.75q-2.6875 0 -5.25 -0.65625q-2.5625 -0.65625 -4.078125 -1.65625l2.078125 -4.484375q1.4375 0.921875 3.484375 1.5q2.046875 0.578125 4.0 0.578125q3.953125 0 3.953125 -1.953125q0 -0.921875 -1.078125 -1.3125q-1.078125 -0.40625 -3.3125 -0.6875q-2.640625 -0.40625 -4.359375 -0.921875q-1.71875 -0.515625 -2.984375 -1.828125q-1.265625 -1.328125 -1.265625 -3.765625q0 -2.046875 1.1875 -3.625q1.1875 -1.578125 3.4375 -2.453125q2.265625 -0.890625 5.34375 -0.890625q2.28125 0 4.53125 0.5q2.265625 0.5 3.75 1.390625l-2.078125 4.4375q-2.84375 -1.609375 -6.203125 -1.609375q-2.0 0 -3.0 0.5625q-1.0 0.5625 -1.0 1.4375q0 1.0 1.078125 1.40625q1.078125 0.40625 3.4375 0.765625q2.640625 0.4375 4.3125 0.9375q1.6875 0.5 2.921875 1.828125q1.25 1.3125 1.25 3.671875q0 2.0 -1.203125 3.5625q-1.203125 1.546875 -3.5 2.40625q-2.296875 0.859375 -5.453125 0.859375zm27.880615 -1.359375q-0.921875 0.6875 -2.265625 1.03125q-1.34375 0.328125 -2.8125 0.328125q-3.84375 0 -5.953125 -1.953125q-2.09375 -1.953125 -2.09375 -5.765625l0 -8.828125l-3.328125 0l0 -4.8125l3.328125 0l0 -5.234375l6.234375 0l0 5.234375l5.359375 0l0 4.8125l-5.359375 0l0 8.75q0 1.359375 0.703125 2.109375q0.703125 0.734375 1.984375 0.734375q1.484375 0 2.515625 -0.796875l1.6875 4.390625zm25.196838 -20.46875l0 21.515625l-5.921875 0l0 -2.5625q-1.234375 1.40625 -2.96875 2.140625q-1.71875 0.734375 -3.71875 0.734375q-4.234375 0 -6.71875 -2.4375q-2.46875 -2.4375 -2.46875 -7.234375l0 -12.15625l6.234375 0l0 11.234375q0 5.203125 4.359375 5.203125q2.234375 0 3.59375 -1.453125q1.359375 -1.46875 1.359375 -4.34375l0 -10.640625l6.25 0zm27.714355 -8.171875l0 29.6875l-5.953125 0l0 -2.484375q-2.328125 2.796875 -6.71875 2.796875q-3.046875 0 -5.515625 -1.359375q-2.453125 -1.359375 -3.859375 -3.875q-1.390625 -2.515625 -1.390625 -5.84375q0 -3.3125 1.390625 -5.828125q1.40625 -2.53125 3.859375 -3.890625q2.46875 -1.359375 5.515625 -1.359375q4.109375 0 6.4375 2.609375l0 -10.453125l6.234375 0zm-11.59375 24.890625q2.359375 0 3.921875 -1.625q1.5625 -1.625 1.5625 -4.34375q0 -2.71875 -1.5625 -4.328125q-1.5625 -1.625 -3.921875 -1.625q-2.40625 0 -3.96875 1.625q-1.546875 1.609375 -1.546875 4.328125q0 2.71875 1.546875 4.34375q1.5625 1.625 3.96875 1.625zm38.429993 -5.890625q0 0.125 -0.109375 1.6875l-16.28125 0q0.4375 2.0 2.078125 3.15625q1.640625 1.15625 4.078125 1.15625q1.6875 0 2.984375 -0.5q1.296875 -0.5 2.421875 -1.578125l3.3125 3.609375q-3.03125 3.46875 -8.875 3.46875q-3.640625 0 -6.453125 -1.40625q-2.796875 -1.421875 -4.3125 -3.9375q-1.515625 -2.53125 -1.515625 -5.734375q0 -3.15625 1.5 -5.6875q1.5 -2.546875 4.109375 -3.96875q2.625 -1.421875 5.875 -1.421875q3.15625 0 5.71875 1.359375q2.5625 1.359375 4.015625 3.90625q1.453125 2.53125 1.453125 5.890625zm-11.15625 -6.4375q-2.109375 0 -3.5625 1.203125q-1.4375 1.203125 -1.75 3.28125l10.59375 0q-0.3125 -2.046875 -1.765625 -3.265625q-1.4375 -1.21875 -3.515625 -1.21875zm28.39624 -4.71875q4.0 0 6.453125 2.40625q2.46875 2.390625 2.46875 7.125l0 12.3125l-6.234375 0l0 -11.359375q0 -2.5625 -1.125 -3.8125q-1.109375 -1.265625 -3.234375 -1.265625q-2.359375 0 -3.765625 1.46875q-1.390625 1.453125 -1.390625 4.328125l0 10.640625l-6.25 0l0 -21.515625l5.96875 0l0 2.515625q1.234375 -1.359375 3.078125 -2.09375q1.84375 -0.75 4.03125 -0.75zm28.452454 20.796875q-0.921875 0.6875 -2.265625 1.03125q-1.34375 0.328125 -2.8125 0.328125q-3.84375 0 -5.953125 -1.953125q-2.09375 -1.953125 -2.09375 -5.765625l0 -8.828125l-3.328125 0l0 -4.8125l3.328125 0l0 -5.234375l6.234375 0l0 5.234375l5.359375 0l0 4.8125l-5.359375 0l0 8.75q0 1.359375 0.703125 2.109375q0.703125 0.734375 1.984375 0.734375q1.484375 0 2.515625 -0.796875l1.6875 4.390625zm25.079346 1.359375q-3.40625 0 -6.109375 -1.40625q-2.703125 -1.421875 -4.21875 -3.9375q-1.515625 -2.53125 -1.515625 -5.734375q0 -3.1875 1.515625 -5.703125q1.515625 -2.53125 4.21875 -3.953125q2.703125 -1.421875 6.109375 -1.421875q3.390625 0 6.0625 1.421875q2.6875 1.421875 4.203125 3.953125q1.53125 2.515625 1.53125 5.703125q0 3.203125 -1.53125 5.734375q-1.515625 2.515625 -4.203125 3.9375q-2.671875 1.40625 -6.0625 1.40625zm0 -5.109375q2.390625 0 3.921875 -1.625q1.546875 -1.625 1.546875 -4.34375q0 -2.71875 -1.546875 -4.328125q-1.53125 -1.625 -3.921875 -1.625q-2.40625 0 -3.96875 1.625q-1.5625 1.609375 -1.5625 4.328125q0 2.71875 1.5625 4.34375q1.5625 1.625 3.96875 1.625zm21.918701 -13.890625q1.109375 -1.546875 3.015625 -2.34375q1.90625 -0.8125 4.375 -0.8125l0 5.765625q-1.03125 -0.078125 -1.390625 -0.078125q-2.6875 0 -4.203125 1.5q-1.515625 1.5 -1.515625 4.5l0 10.15625l-6.25 0l0 -21.515625l5.96875 0l0 2.828125zm33.11438 -2.828125l0 17.921875q0 5.90625 -3.078125 8.78125q-3.078125 2.890625 -9.0 2.890625q-3.125 0 -5.921875 -0.765625q-2.796875 -0.75 -4.640625 -2.1875l2.484375 -4.484375q1.359375 1.125 3.4375 1.78125q2.078125 0.65625 4.15625 0.65625q3.25 0 4.78125 -1.46875q1.546875 -1.453125 1.546875 -4.40625l0 -0.921875q-2.4375 2.671875 -6.796875 2.671875q-2.96875 0 -5.4375 -1.296875q-2.453125 -1.296875 -3.890625 -3.65625q-1.4375 -2.359375 -1.4375 -5.4375q0 -3.078125 1.4375 -5.4375q1.4375 -2.359375 3.890625 -3.65625q2.46875 -1.3125 5.4375 -1.3125q4.671875 0 7.109375 3.078125l0 -2.75l5.921875 0zm-11.796875 15.359375q2.484375 0 4.0625 -1.453125q1.578125 -1.46875 1.578125 -3.828125q0 -2.359375 -1.578125 -3.8125q-1.578125 -1.46875 -4.0625 -1.46875q-2.484375 0 -4.09375 1.46875q-1.59375 1.453125 -1.59375 3.8125q0 2.359375 1.59375 3.828125q1.609375 1.453125 4.09375 1.453125zm26.28125 -15.6875q5.0 0 7.671875 2.390625q2.6875 2.375 2.6875 7.171875l0 12.28125l-5.84375 0l0 -2.6875q-1.765625 3.0 -6.5625 3.0q-2.46875 0 -4.296875 -0.828125q-1.8125 -0.84375 -2.78125 -2.3125q-0.953125 -1.484375 -0.953125 -3.375q0 -3.0 2.25 -4.71875q2.265625 -1.71875 6.984375 -1.71875l4.96875 0q0 -2.046875 -1.25 -3.140625q-1.234375 -1.09375 -3.71875 -1.09375q-1.71875 0 -3.375 0.546875q-1.65625 0.53125 -2.828125 1.453125l-2.234375 -4.359375q1.765625 -1.25 4.21875 -1.921875q2.453125 -0.6875 5.0625 -0.6875zm-0.484375 17.96875q1.609375 0 2.84375 -0.734375q1.234375 -0.75 1.765625 -2.1875l0 -2.203125l-4.28125 0q-3.84375 0 -3.84375 2.515625q0 1.203125 0.9375 1.90625q0.9375 0.703125 2.578125 0.703125zm29.554993 -17.96875q4.0 0 6.453125 2.40625q2.46875 2.390625 2.46875 7.125l0 12.3125l-6.234375 0l0 -11.359375q0 -2.5625 -1.125 -3.8125q-1.109375 -1.265625 -3.234375 -1.265625q-2.359375 0 -3.765625 1.46875q-1.390625 1.453125 -1.390625 4.328125l0 10.640625l-6.25 0l0 -21.515625l5.96875 0l0 2.515625q1.234375 -1.359375 3.078125 -2.09375q1.84375 -0.75 4.03125 -0.75zm14.561829 0.328125l6.25 0l0 21.515625l-6.25 0l0 -21.515625zm3.125 -3.0q-1.71875 0 -2.796875 -1.0q-1.078125 -1.0 -1.078125 -2.484375q0 -1.484375 1.078125 -2.484375q1.078125 -1.0 2.796875 -1.0q1.71875 0 2.796875 0.96875q1.078125 0.953125 1.078125 2.390625q0 1.5625 -1.078125 2.59375q-1.078125 1.015625 -2.796875 1.015625zm26.633728 19.71875l0 4.796875l-19.1875 0l0 -3.765625l10.953125 -12.953125l-10.671875 0l0 -4.796875l18.546875 0l0 3.75l-10.953125 12.96875l11.3125 0zm12.688721 -17.046875q5.0 0 7.671875 2.390625q2.6875 2.375 2.6875 7.171875l0 12.28125l-5.84375 0l0 -2.6875q-1.765625 3.0 -6.5625 3.0q-2.46875 0 -4.296875 -0.828125q-1.8125 -0.84375 -2.78125 -2.3125q-0.953125 -1.484375 -0.953125 -3.375q0 -3.0 2.25 -4.71875q2.265625 -1.71875 6.984375 -1.71875l4.96875 0q0 -2.046875 -1.25 -3.140625q-1.234375 -1.09375 -3.71875 -1.09375q-1.71875 0 -3.375 0.546875q-1.65625 0.53125 -2.828125 1.453125l-2.234375 -4.359375q1.765625 -1.25 4.21875 -1.921875q2.453125 -0.6875 5.0625 -0.6875zm-0.484375 17.96875q1.609375 0 2.84375 -0.734375q1.234375 -0.75 1.765625 -2.1875l0 -2.203125l-4.28125 0q-3.84375 0 -3.84375 2.515625q0 1.203125 0.9375 1.90625q0.9375 0.703125 2.578125 0.703125zm30.367493 2.828125q-0.921875 0.6875 -2.265625 1.03125q-1.34375 0.328125 -2.8125 0.328125q-3.84375 0 -5.953125 -1.953125q-2.09375 -1.953125 -2.09375 -5.765625l0 -8.828125l-3.328125 0l0 -4.8125l3.328125 0l0 -5.234375l6.234375 0l0 5.234375l5.359375 0l0 4.8125l-5.359375 0l0 8.75q0 1.359375 0.703125 2.109375q0.703125 0.734375 1.984375 0.734375q1.484375 0 2.515625 -0.796875l1.6875 4.390625zm3.5093384 -20.46875l6.25 0l0 21.515625l-6.25 0l0 -21.515625zm3.125 -3.0q-1.71875 0 -2.796875 -1.0q-1.078125 -1.0 -1.078125 -2.484375q0 -1.484375 1.078125 -2.484375q1.078125 -1.0 2.796875 -1.0q1.71875 0 2.796875 0.96875q1.078125 0.953125 1.078125 2.390625q0 1.5625 -1.078125 2.59375q-1.078125 1.015625 -2.796875 1.015625zm19.164978 24.828125q-3.40625 0 -6.109375 -1.40625q-2.703125 -1.421875 -4.21875 -3.9375q-1.515625 -2.53125 -1.515625 -5.734375q0 -3.1875 1.515625 -5.703125q1.515625 -2.53125 4.21875 -3.953125q2.703125 -1.421875 6.109375 -1.421875q3.390625 0 6.0625 1.421875q2.6875 1.421875 4.203125 3.953125q1.53125 2.515625 1.53125 5.703125q0 3.203125 -1.53125 5.734375q-1.515625 2.515625 -4.203125 3.9375q-2.671875 1.40625 -6.0625 1.40625zm0 -5.109375q2.390625 0 3.921875 -1.625q1.546875 -1.625 1.546875 -4.34375q0 -2.71875 -1.546875 -4.328125q-1.53125 -1.625 -3.921875 -1.625q-2.40625 0 -3.96875 1.625q-1.5625 1.609375 -1.5625 4.328125q0 2.71875 1.5625 4.34375q1.5625 1.625 3.96875 1.625zm29.028076 -17.046875q4.0 0 6.453125 2.40625q2.46875 2.390625 2.46875 7.125l0 12.3125l-6.234375 0l0 -11.359375q0 -2.5625 -1.125 -3.8125q-1.109375 -1.265625 -3.234375 -1.265625q-2.359375 0 -3.765625 1.46875q-1.390625 1.453125 -1.390625 4.328125l0 10.640625l-6.25 0l0 -21.515625l5.96875 0l0 2.515625q1.234375 -1.359375 3.078125 -2.09375q1.84375 -0.75 4.03125 -0.75zm16.921204 22.15625q-1.640625 0 -2.765625 -1.109375q-1.109375 -1.125 -1.109375 -2.796875q0 -1.71875 1.109375 -2.78125q1.125 -1.0625 2.765625 -1.0625q1.640625 0 2.765625 1.0625q1.125 1.0625 1.125 2.78125q0 1.671875 -1.125 2.796875q-1.125 1.109375 -2.765625 1.109375zm45.565674 -28.3125l0 28.0l-6.484375 0l0 -11.484375l-12.71875 0l0 11.484375l-6.484375 0l0 -28.0l6.484375 0l0 11.046875l12.71875 0l0 -11.046875l6.484375 0zm27.273071 17.3125q0 0.125 -0.109375 1.6875l-16.28125 0q0.4375 2.0 2.078125 3.15625q1.640625 1.15625 4.078125 1.15625q1.6875 0 2.984375 -0.5q1.296875 -0.5 2.421875 -1.578125l3.3125 3.609375q-3.03125 3.46875 -8.875 3.46875q-3.640625 0 -6.453125 -1.40625q-2.796875 -1.421875 -4.3125 -3.9375q-1.515625 -2.53125 -1.515625 -5.734375q0 -3.15625 1.5 -5.6875q1.5 -2.546875 4.109375 -3.96875q2.625 -1.421875 5.875 -1.421875q3.15625 0 5.71875 1.359375q2.5625 1.359375 4.015625 3.90625q1.453125 2.53125 1.453125 5.890625zm-11.15625 -6.4375q-2.109375 0 -3.5625 1.203125q-1.4375 1.203125 -1.75 3.28125l10.59375 0q-0.3125 -2.046875 -1.765625 -3.265625q-1.4375 -1.21875 -3.515625 -1.21875zm15.318115 -12.5625l6.25 0l0 29.6875l-6.25 0l0 -29.6875zm24.75879 7.84375q3.0 0 5.453125 1.390625q2.46875 1.375 3.859375 3.875q1.40625 2.5 1.40625 5.8125q0 3.328125 -1.40625 5.828125q-1.390625 2.5 -3.859375 3.875q-2.453125 1.375 -5.453125 1.375q-4.109375 0 -6.46875 -2.59375l0 10.046875l-6.25 0l0 -29.28125l5.96875 0l0 2.46875q2.3125 -2.796875 6.75 -2.796875zm-1.078125 17.046875q2.40625 0 3.9375 -1.625q1.546875 -1.625 1.546875 -4.34375q0 -2.71875 -1.546875 -4.328125q-1.53125 -1.625 -3.9375 -1.625q-2.390625 0 -3.9375 1.625q-1.53125 1.609375 -1.53125 4.328125q0 2.71875 1.53125 4.34375q1.546875 1.625 3.9375 1.625zm34.529297 5.109375q-2.6875 0 -5.25 -0.65625q-2.5625 -0.65625 -4.078125 -1.65625l2.078125 -4.484375q1.4375 0.921875 3.484375 1.5q2.046875 0.578125 4.0 0.578125q3.953125 0 3.953125 -1.953125q0 -0.921875 -1.078125 -1.3125q-1.078125 -0.40625 -3.3125 -0.6875q-2.640625 -0.40625 -4.359375 -0.921875q-1.71875 -0.515625 -2.984375 -1.828125q-1.265625 -1.328125 -1.265625 -3.765625q0 -2.046875 1.1875 -3.625q1.1875 -1.578125 3.4375 -2.453125q2.265625 -0.890625 5.34375 -0.890625q2.28125 0 4.53125 0.5q2.265625 0.5 3.75 1.390625l-2.078125 4.4375q-2.84375 -1.609375 -6.203125 -1.609375q-2.0 0 -3.0 0.5625q-1.0 0.5625 -1.0 1.4375q0 1.0 1.078125 1.40625q1.078125 0.40625 3.4375 0.765625q2.640625 0.4375 4.3125 0.9375q1.6875 0.5 2.921875 1.828125q1.25 1.3125 1.25 3.671875q0 2.0 -1.203125 3.5625q-1.203125 1.546875 -3.5 2.40625q-2.296875 0.859375 -5.453125 0.859375zm35.67749 -21.828125l0 21.515625l-5.921875 0l0 -2.5625q-1.234375 1.40625 -2.96875 2.140625q-1.71875 0.734375 -3.71875 0.734375q-4.234375 0 -6.71875 -2.4375q-2.46875 -2.4375 -2.46875 -7.234375l0 -12.15625l6.234375 0l0 11.234375q0 5.203125 4.359375 5.203125q2.234375 0 3.59375 -1.453125q1.359375 -1.46875 1.359375 -4.34375l0 -10.640625l6.25 0zm18.51123 -0.328125q3.0 0 5.453125 1.390625q2.46875 1.375 3.859375 3.875q1.40625 2.5 1.40625 5.8125q0 3.328125 -1.40625 5.828125q-1.390625 2.5 -3.859375 3.875q-2.453125 1.375 -5.453125 1.375q-4.109375 0 -6.46875 -2.59375l0 10.046875l-6.25 0l0 -29.28125l5.96875 0l0 2.46875q2.3125 -2.796875 6.75 -2.796875zm-1.078125 17.046875q2.40625 0 3.9375 -1.625q1.546875 -1.625 1.546875 -4.34375q0 -2.71875 -1.546875 -4.328125q-1.53125 -1.625 -3.9375 -1.625q-2.390625 0 -3.9375 1.625q-1.53125 1.609375 -1.53125 4.328125q0 2.71875 1.53125 4.34375q1.546875 1.625 3.9375 1.625zm28.6781 -17.046875q3.0 0 5.453125 1.390625q2.46875 1.375 3.859375 3.875q1.40625 2.5 1.40625 5.8125q0 3.328125 -1.40625 5.828125q-1.390625 2.5 -3.859375 3.875q-2.453125 1.375 -5.453125 1.375q-4.109375 0 -6.46875 -2.59375l0 10.046875l-6.25 0l0 -29.28125l5.96875 0l0 2.46875q2.3125 -2.796875 6.75 -2.796875zm-1.078125 17.046875q2.40625 0 3.9375 -1.625q1.546875 -1.625 1.546875 -4.34375q0 -2.71875 -1.546875 -4.328125q-1.53125 -1.625 -3.9375 -1.625q-2.390625 0 -3.9375 1.625q-1.53125 1.609375 -1.53125 4.328125q0 2.71875 1.53125 4.34375q1.546875 1.625 3.9375 1.625zm26.20935 5.109375q-3.40625 0 -6.109375 -1.40625q-2.703125 -1.421875 -4.21875 -3.9375q-1.515625 -2.53125 -1.515625 -5.734375q0 -3.1875 1.515625 -5.703125q1.515625 -2.53125 4.21875 -3.953125q2.703125 -1.421875 6.109375 -1.421875q3.390625 0 6.0625 1.421875q2.6875 1.421875 4.203125 3.953125q1.53125 2.515625 1.53125 5.703125q0 3.203125 -1.53125 5.734375q-1.515625 2.515625 -4.203125 3.9375q-2.671875 1.40625 -6.0625 1.40625zm0 -5.109375q2.390625 0 3.921875 -1.625q1.546875 -1.625 1.546875 -4.34375q0 -2.71875 -1.546875 -4.328125q-1.53125 -1.625 -3.921875 -1.625q-2.40625 0 -3.96875 1.625q-1.5625 1.609375 -1.5625 4.328125q0 2.71875 1.5625 4.34375q1.5625 1.625 3.96875 1.625zm21.918701 -13.890625q1.109375 -1.546875 3.015625 -2.34375q1.90625 -0.8125 4.375 -0.8125l0 5.765625q-1.03125 -0.078125 -1.390625 -0.078125q-2.6875 0 -4.203125 1.5q-1.515625 1.5 -1.515625 4.5l0 10.15625l-6.25 0l0 -21.515625l5.96875 0l0 2.828125zm25.76184 17.640625q-0.921875 0.6875 -2.265625 1.03125q-1.34375 0.328125 -2.8125 0.328125q-3.84375 0 -5.953125 -1.953125q-2.09375 -1.953125 -2.09375 -5.765625l0 -8.828125l-3.328125 0l0 -4.8125l3.328125 0l0 -5.234375l6.234375 0l0 5.234375l5.359375 0l0 4.8125l-5.359375 0l0 8.75q0 1.359375 0.703125 2.109375q0.703125 0.734375 1.984375 0.734375q1.484375 0 2.515625 -0.796875l1.6875 4.390625z" fill-rule="nonzero"/><path fill="#00274c" d="m61.70553 197.62064q-3.40625 0 -6.109375 -1.40625q-2.703125 -1.421875 -4.21875 -3.9375q-1.515625 -2.53125 -1.515625 -5.734375q0 -3.1875 1.515625 -5.703125q1.515625 -2.53125 4.21875 -3.953125q2.703125 -1.421875 6.109375 -1.421875q3.390625 0 6.0625 1.421875q2.6875 1.421875 4.203125 3.953125q1.53125 2.515625 1.53125 5.703125q0 3.203125 -1.53125 5.734375q-1.515625 2.515625 -4.203125 3.9375q-2.671875 1.40625 -6.0625 1.40625zm0 -5.109375q2.390625 0 3.921875 -1.625q1.546875 -1.625 1.546875 -4.34375q0 -2.71875 -1.546875 -4.328125q-1.53125 -1.625 -3.921875 -1.625q-2.40625 0 -3.96875 1.625q-1.5625 1.609375 -1.5625 4.328125q0 2.71875 1.5625 4.34375q1.5625 1.625 3.96875 1.625zm37.63748 -16.71875l0 21.515625l-5.921875 0l0 -2.5625q-1.234375 1.40625 -2.96875 2.140625q-1.71875 0.734375 -3.71875 0.734375q-4.234375 0 -6.71875 -2.4375q-2.46875 -2.4375 -2.46875 -7.234375l0 -12.15625l6.234375 0l0 11.234375q0 5.203125 4.359375 5.203125q2.234375 0 3.59375 -1.453125q1.359375 -1.46875 1.359375 -4.34375l0 -10.640625l6.25 0zm11.76123 2.828125q1.109375 -1.546875 3.015625 -2.34375q1.90625 -0.8125 4.375 -0.8125l0 5.765625q-1.03125 -0.078125 -1.390625 -0.078125q-2.6875 0 -4.203125 1.5q-1.515625 1.5 -1.515625 4.5l0 10.15625l-6.25 0l0 -21.515625l5.96875 0l0 2.828125zm43.66935 8.0q0 0.125 -0.109375 1.6875l-16.28125 0q0.4375 2.0 2.078125 3.15625q1.640625 1.15625 4.078125 1.15625q1.6875 0 2.984375 -0.5q1.296875 -0.5 2.421875 -1.578125l3.3125 3.609375q-3.03125 3.46875 -8.875 3.46875q-3.640625 0 -6.453125 -1.40625q-2.796875 -1.421875 -4.3125 -3.9375q-1.515625 -2.53125 -1.515625 -5.734375q0 -3.15625 1.5 -5.6875q1.5 -2.546875 4.109375 -3.96875q2.625 -1.421875 5.875 -1.421875q3.15625 0 5.71875 1.359375q2.5625 1.359375 4.015625 3.90625q1.453125 2.53125 1.453125 5.890625zm-11.15625 -6.4375q-2.109375 0 -3.5625 1.203125q-1.4375 1.203125 -1.75 3.28125l10.59375 0q-0.3125 -2.046875 -1.765625 -3.265625q-1.4375 -1.21875 -3.515625 -1.21875zm22.161865 -3.921875l5.515625 0l0 4.8125l-5.359375 0l0 16.234375l-6.234375 0l0 -16.234375l-3.328125 0l0 -4.8125l3.328125 0l0 -0.953125q0 -3.6875 2.171875 -5.84375q2.1875 -2.15625 6.140625 -2.15625q1.40625 0 2.65625 0.296875q1.265625 0.296875 2.109375 0.859375l-1.640625 4.53125q-1.078125 -0.765625 -2.515625 -0.765625q-2.84375 0 -2.84375 3.125l0 0.90625zm15.47998 0l5.515625 0l0 4.8125l-5.359375 0l0 16.234375l-6.234375 0l0 -16.234375l-3.328125 0l0 -4.8125l3.328125 0l0 -0.953125q0 -3.6875 2.171875 -5.84375q2.1875 -2.15625 6.140625 -2.15625q1.40625 0 2.65625 0.296875q1.265625 0.296875 2.109375 0.859375l-1.640625 4.53125q-1.078125 -0.765625 -2.515625 -0.765625q-2.84375 0 -2.84375 3.125l0 0.90625zm18.606232 21.359375q-3.40625 0 -6.109375 -1.40625q-2.703125 -1.421875 -4.21875 -3.9375q-1.515625 -2.53125 -1.515625 -5.734375q0 -3.1875 1.515625 -5.703125q1.515625 -2.53125 4.21875 -3.953125q2.703125 -1.421875 6.109375 -1.421875q3.390625 0 6.0625 1.421875q2.6875 1.421875 4.203125 3.953125q1.53125 2.515625 1.53125 5.703125q0 3.203125 -1.53125 5.734375q-1.515625 2.515625 -4.203125 3.9375q-2.671875 1.40625 -6.0625 1.40625zm0 -5.109375q2.390625 0 3.921875 -1.625q1.546875 -1.625 1.546875 -4.34375q0 -2.71875 -1.546875 -4.328125q-1.53125 -1.625 -3.921875 -1.625q-2.40625 0 -3.96875 1.625q-1.5625 1.609375 -1.5625 4.328125q0 2.71875 1.5625 4.34375q1.5625 1.625 3.96875 1.625zm21.918732 -13.890625q1.109375 -1.546875 3.015625 -2.34375q1.90625 -0.8125 4.375 -0.8125l0 5.765625q-1.03125 -0.078125 -1.390625 -0.078125q-2.6875 0 -4.203125 1.5q-1.515625 1.5 -1.515625 4.5l0 10.15625l-6.25 0l0 -21.515625l5.96875 0l0 2.828125zm25.761871 17.640625q-0.921875 0.6875 -2.265625 1.03125q-1.34375 0.328125 -2.8125 0.328125q-3.84375 0 -5.953125 -1.953125q-2.09375 -1.953125 -2.09375 -5.765625l0 -8.828125l-3.328125 0l0 -4.8125l3.328125 0l0 -5.234375l6.234375 0l0 5.234375l5.359375 0l0 4.8125l-5.359375 0l0 8.75q0 1.359375 0.703125 2.109375q0.703125 0.734375 1.984375 0.734375q1.484375 0 2.515625 -0.796875l1.6875 4.390625zm10.759338 1.359375q-2.6875 0 -5.25 -0.65625q-2.5625 -0.65625 -4.078125 -1.65625l2.078125 -4.484375q1.4375 0.921875 3.484375 1.5q2.046875 0.578125 4.0 0.578125q3.953125 0 3.953125 -1.953125q0 -0.921875 -1.078125 -1.3125q-1.078125 -0.40625 -3.3125 -0.6875q-2.640625 -0.40625 -4.359375 -0.921875q-1.71875 -0.515625 -2.984375 -1.828125q-1.265625 -1.328125 -1.265625 -3.765625q0 -2.046875 1.1875 -3.625q1.1875 -1.578125 3.4375 -2.453125q2.265625 -0.890625 5.34375 -0.890625q2.28125 0 4.53125 0.5q2.265625 0.5 3.75 1.390625l-2.078125 4.4375q-2.84375 -1.609375 -6.203125 -1.609375q-2.0 0 -3.0 0.5625q-1.0 0.5625 -1.0 1.4375q0 1.0 1.078125 1.40625q1.078125 0.40625 3.4375 0.765625q2.640625 0.4375 4.3125 0.9375q1.6875 0.5 2.921875 1.828125q1.25 1.3125 1.25 3.671875q0 2.0 -1.203125 3.5625q-1.203125 1.546875 -3.5 2.40625q-2.296875 0.859375 -5.453125 0.859375zm59.872467 -21.828125l-7.796875 21.515625l-6.0 0l-4.84375 -13.359375l-5.0 13.359375l-6.0 0l-7.75 -21.515625l5.875 0l5.078125 14.5625l5.28125 -14.5625l5.28125 0l5.125 14.5625l5.234375 -14.5625l5.515625 0zm2.9174805 0l6.25 0l0 21.515625l-6.25 0l0 -21.515625zm3.125 -3.0q-1.71875 0 -2.796875 -1.0q-1.078125 -1.0 -1.078125 -2.484375q0 -1.484375 1.078125 -2.484375q1.078125 -1.0 2.796875 -1.0q1.71875 0 2.796875 0.96875q1.078125 0.953125 1.078125 2.390625q0 1.5625 -1.078125 2.59375q-1.078125 1.015625 -2.796875 1.015625zm22.805603 23.46875q-0.921875 0.6875 -2.265625 1.03125q-1.34375 0.328125 -2.8125 0.328125q-3.84375 0 -5.953125 -1.953125q-2.09375 -1.953125 -2.09375 -5.765625l0 -8.828125l-3.328125 0l0 -4.8125l3.328125 0l0 -5.234375l6.234375 0l0 5.234375l5.359375 0l0 4.8125l-5.359375 0l0 8.75q0 1.359375 0.703125 2.109375q0.703125 0.734375 1.984375 0.734375q1.484375 0 2.515625 -0.796875l1.6875 4.390625zm16.587463 -20.796875q4.0 0 6.453125 2.40625q2.46875 2.390625 2.46875 7.125l0 12.3125l-6.234375 0l0 -11.359375q0 -2.5625 -1.125 -3.8125q-1.109375 -1.265625 -3.234375 -1.265625q-2.359375 0 -3.765625 1.46875q-1.390625 1.453125 -1.390625 4.328125l0 10.640625l-6.25 0l0 -29.6875l6.25 0l0 10.40625q1.234375 -1.234375 2.984375 -1.890625q1.765625 -0.671875 3.84375 -0.671875zm34.569336 0q5.0 0 7.671875 2.390625q2.6875 2.375 2.6875 7.171875l0 12.28125l-5.84375 0l0 -2.6875q-1.765625 3.0 -6.5625 3.0q-2.46875 0 -4.296875 -0.828125q-1.8125 -0.84375 -2.78125 -2.3125q-0.953125 -1.484375 -0.953125 -3.375q0 -3.0 2.25 -4.71875q2.265625 -1.71875 6.984375 -1.71875l4.96875 0q0 -2.046875 -1.25 -3.140625q-1.234375 -1.09375 -3.71875 -1.09375q-1.71875 0 -3.375 0.546875q-1.65625 0.53125 -2.828125 1.453125l-2.234375 -4.359375q1.765625 -1.25 4.21875 -1.921875q2.453125 -0.6875 5.0625 -0.6875zm-0.484375 17.96875q1.609375 0 2.84375 -0.734375q1.234375 -0.75 1.765625 -2.1875l0 -2.203125l-4.28125 0q-3.84375 0 -3.84375 2.515625q0 1.203125 0.9375 1.90625q0.9375 0.703125 2.578125 0.703125zm41.6875 2.828125q-0.921875 0.6875 -2.265625 1.03125q-1.34375 0.328125 -2.8125 0.328125q-3.84375 0 -5.953125 -1.953125q-2.09375 -1.953125 -2.09375 -5.765625l0 -8.828125l-3.328125 0l0 -4.8125l3.328125 0l0 -5.234375l6.234375 0l0 5.234375l5.359375 0l0 4.8125l-5.359375 0l0 8.75q0 1.359375 0.703125 2.109375q0.703125 0.734375 1.984375 0.734375q1.484375 0 2.515625 -0.796875l1.6875 4.390625zm12.196838 -20.796875q5.0 0 7.671875 2.390625q2.6875 2.375 2.6875 7.171875l0 12.28125l-5.84375 0l0 -2.6875q-1.765625 3.0 -6.5625 3.0q-2.46875 0 -4.296875 -0.828125q-1.8125 -0.84375 -2.78125 -2.3125q-0.953125 -1.484375 -0.953125 -3.375q0 -3.0 2.25 -4.71875q2.265625 -1.71875 6.984375 -1.71875l4.96875 0q0 -2.046875 -1.25 -3.140625q-1.234375 -1.09375 -3.71875 -1.09375q-1.71875 0 -3.375 0.546875q-1.65625 0.53125 -2.828125 1.453125l-2.234375 -4.359375q1.765625 -1.25 4.21875 -1.921875q2.453125 -0.6875 5.0625 -0.6875zm-0.484375 17.96875q1.609375 0 2.84375 -0.734375q1.234375 -0.75 1.765625 -2.1875l0 -2.203125l-4.28125 0q-3.84375 0 -3.84375 2.515625q0 1.203125 0.9375 1.90625q0.9375 0.703125 2.578125 0.703125zm30.164368 3.875l-4.71875 -6.59375l-4.890625 6.59375l-6.796875 0l8.28125 -10.84375l-8.0 -10.671875l7.0 0l4.5625 6.28125l4.6875 -6.28125l6.625 0l-8.0 10.515625l8.328125 11.0l-7.078125 0zm8.275604 -13.765625l11.328125 0l0 5.0l-11.328125 0l0 -5.0zm38.558777 -15.921875l0 29.6875l-5.953125 0l0 -2.484375q-2.328125 2.796875 -6.71875 2.796875q-3.046875 0 -5.5156555 -1.359375q-2.453125 -1.359375 -3.859375 -3.875q-1.390625 -2.515625 -1.390625 -5.84375q0 -3.3125 1.390625 -5.828125q1.40625 -2.53125 3.859375 -3.890625q2.4687805 -1.359375 5.5156555 -1.359375q4.109375 0 6.4375 2.609375l0 -10.453125l6.234375 0zm-11.59375 24.890625q2.359375 0 3.921875 -1.625q1.5625 -1.625 1.5625 -4.34375q0 -2.71875 -1.5625 -4.328125q-1.5625 -1.625 -3.921875 -1.625q-2.40625 0 -3.96875 1.625q-1.5469055 1.609375 -1.5469055 4.328125q0 2.71875 1.5469055 4.34375q1.5625 1.625 3.96875 1.625zm38.42993 -5.890625q0 0.125 -0.109375 1.6875l-16.28125 0q0.4375 2.0 2.078125 3.15625q1.640625 1.15625 4.078125 1.15625q1.6875 0 2.984375 -0.5q1.296875 -0.5 2.421875 -1.578125l3.3125 3.609375q-3.03125 3.46875 -8.875 3.46875q-3.640625 0 -6.453125 -1.40625q-2.796875 -1.421875 -4.3125 -3.9375q-1.515625 -2.53125 -1.515625 -5.734375q0 -3.15625 1.5 -5.6875q1.5 -2.546875 4.109375 -3.96875q2.625 -1.421875 5.875 -1.421875q3.15625 0 5.71875 1.359375q2.5625 1.359375 4.015625 3.90625q1.453125 2.53125 1.453125 5.890625zm-11.15625 -6.4375q-2.109375 0 -3.5625 1.203125q-1.4375 1.203125 -1.75 3.28125l10.59375 0q-0.3125 -2.046875 -1.765625 -3.265625q-1.4375 -1.21875 -3.515625 -1.21875zm37.23999 -12.5625l0 29.6875l-5.953125 0l0 -2.484375q-2.328125 2.796875 -6.71875 2.796875q-3.046875 0 -5.515625 -1.359375q-2.453125 -1.359375 -3.859375 -3.875q-1.390625 -2.515625 -1.390625 -5.84375q0 -3.3125 1.390625 -5.828125q1.40625 -2.53125 3.859375 -3.890625q2.46875 -1.359375 5.515625 -1.359375q4.109375 0 6.4375 2.609375l0 -10.453125l6.234375 0zm-11.59375 24.890625q2.359375 0 3.921875 -1.625q1.5625 -1.625 1.5625 -4.34375q0 -2.71875 -1.5625 -4.328125q-1.5625 -1.625 -3.921875 -1.625q-2.40625 0 -3.96875 1.625q-1.546875 1.609375 -1.546875 4.328125q0 2.71875 1.546875 4.34375q1.5625 1.625 3.96875 1.625zm39.039368 -16.71875l0 21.515625l-5.921875 0l0 -2.5625q-1.234375 1.40625 -2.96875 2.140625q-1.71875 0.734375 -3.71875 0.734375q-4.234375 0 -6.71875 -2.4375q-2.46875 -2.4375 -2.46875 -7.234375l0 -12.15625l6.234375 0l0 11.234375q0 5.203125 4.359375 5.203125q2.234375 0 3.59375 -1.453125q1.359375 -1.46875 1.359375 -4.34375l0 -10.640625l6.25 0zm16.19873 21.828125q-3.4375 0 -6.1875 -1.40625q-2.734375 -1.421875 -4.28125 -3.9375q-1.53125 -2.53125 -1.53125 -5.734375q0 -3.1875 1.53125 -5.703125q1.546875 -2.53125 4.28125 -3.953125q2.75 -1.421875 6.1875 -1.421875q3.40625 0 5.9375 1.421875q2.546875 1.421875 3.703125 4.0625l-4.84375 2.59375q-1.671875 -2.953125 -4.84375 -2.953125q-2.4375 0 -4.046875 1.609375q-1.59375 1.59375 -1.59375 4.34375q0 2.765625 1.59375 4.375q1.609375 1.59375 4.046875 1.59375q3.203125 0 4.84375 -2.96875l4.84375 2.640625q-1.15625 2.5625 -3.703125 4.0q-2.53125 1.4375 -5.9375 1.4375zm27.444336 -1.359375q-0.921875 0.6875 -2.265625 1.03125q-1.34375 0.328125 -2.8125 0.328125q-3.84375 0 -5.953125 -1.953125q-2.09375 -1.953125 -2.09375 -5.765625l0 -8.828125l-3.328125 0l0 -4.8125l3.328125 0l0 -5.234375l6.234375 0l0 5.234375l5.359375 0l0 4.8125l-5.359375 0l0 8.75q0 1.359375 0.703125 2.109375q0.703125 0.734375 1.984375 0.734375q1.484375 0 2.515625 -0.796875l1.6875 4.390625zm3.5093384 -20.46875l6.25 0l0 21.515625l-6.25 0l0 -21.515625zm3.125 -3.0q-1.71875 0 -2.796875 -1.0q-1.078125 -1.0 -1.078125 -2.484375q0 -1.484375 1.078125 -2.484375q1.078125 -1.0 2.796875 -1.0q1.71875 0 2.796875 0.96875q1.078125 0.953125 1.078125 2.390625q0 1.5625 -1.078125 2.59375q-1.078125 1.015625 -2.796875 1.015625zm21.633728 2.671875q3.0 0 5.453125 1.390625q2.46875 1.375 3.859375 3.875q1.40625 2.5 1.40625 5.8125q0 3.328125 -1.40625 5.828125q-1.390625 2.5 -3.859375 3.875q-2.453125 1.375 -5.453125 1.375q-4.4375 0 -6.75 -2.796875l0 2.484375l-5.96875 0l0 -29.6875l6.25 0l0 10.453125q2.359375 -2.609375 6.46875 -2.609375zm-1.078125 17.046875q2.40625 0 3.9375 -1.625q1.546875 -1.625 1.546875 -4.34375q0 -2.71875 -1.546875 -4.328125q-1.53125 -1.625 -3.9375 -1.625q-2.390625 0 -3.9375 1.625q-1.53125 1.609375 -1.53125 4.328125q0 2.71875 1.53125 4.34375q1.546875 1.625 3.9375 1.625zm15.959351 -24.890625l6.25 0l0 29.6875l-6.25 0l0 -29.6875zm33.118103 19.0q0 0.125 -0.109375 1.6875l-16.28125 0q0.4375 2.0 2.078125 3.15625q1.640625 1.15625 4.078125 1.15625q1.6875 0 2.984375 -0.5q1.296875 -0.5 2.421875 -1.578125l3.3125 3.609375q-3.03125 3.46875 -8.875 3.46875q-3.640625 0 -6.453125 -1.40625q-2.796875 -1.421875 -4.3125 -3.9375q-1.515625 -2.53125 -1.515625 -5.734375q0 -3.15625 1.5 -5.6875q1.5 -2.546875 4.109375 -3.96875q2.625 -1.421875 5.875 -1.421875q3.15625 0 5.71875 1.359375q2.5625 1.359375 4.015625 3.90625q1.453125 2.53125 1.453125 5.890625zm-11.15625 -6.4375q-2.109375 0 -3.5625 1.203125q-1.4375 1.203125 -1.75 3.28125l10.59375 0q-0.3125 -2.046875 -1.765625 -3.265625q-1.4375 -1.21875 -3.515625 -1.21875zm48.559998 -12.5625l0 29.6875l-5.953125 0l0 -2.484375q-2.328125 2.796875 -6.71875 2.796875q-3.046875 0 -5.515625 -1.359375q-2.453125 -1.359375 -3.859375 -3.875q-1.390625 -2.515625 -1.390625 -5.84375q0 -3.3125 1.390625 -5.828125q1.40625 -2.53125 3.859375 -3.890625q2.46875 -1.359375 5.515625 -1.359375q4.109375 0 6.4375 2.609375l0 -10.453125l6.234375 0zm-11.59375 24.890625q2.359375 0 3.921875 -1.625q1.5625 -1.625 1.5625 -4.34375q0 -2.71875 -1.5625 -4.328125q-1.5625 -1.625 -3.921875 -1.625q-2.40625 0 -3.96875 1.625q-1.546875 1.609375 -1.546875 4.328125q0 2.71875 1.546875 4.34375q1.5625 1.625 3.96875 1.625zm27.601868 5.109375q-3.40625 0 -6.109375 -1.40625q-2.703125 -1.421875 -4.21875 -3.9375q-1.515625 -2.53125 -1.515625 -5.734375q0 -3.1875 1.515625 -5.703125q1.515625 -2.53125 4.21875 -3.953125q2.703125 -1.421875 6.109375 -1.421875q3.390625 0 6.0625 1.421875q2.6875 1.421875 4.203125 3.953125q1.53125 2.515625 1.53125 5.703125q0 3.203125 -1.53125 5.734375q-1.515625 2.515625 -4.203125 3.9375q-2.671875 1.40625 -6.0625 1.40625zm0 -5.109375q2.390625 0 3.921875 -1.625q1.546875 -1.625 1.546875 -4.34375q0 -2.71875 -1.546875 -4.328125q-1.53125 -1.625 -3.921875 -1.625q-2.40625 0 -3.96875 1.625q-1.5625 1.609375 -1.5625 4.328125q0 2.71875 1.5625 4.34375q1.5625 1.625 3.96875 1.625zm29.028137 -17.046875q4.0 0 6.453125 2.40625q2.46875 2.390625 2.46875 7.125l0 12.3125l-6.234375 0l0 -11.359375q0 -2.5625 -1.125 -3.8125q-1.109375 -1.265625 -3.234375 -1.265625q-2.359375 0 -3.765625 1.46875q-1.390625 1.453125 -1.390625 4.328125l0 10.640625l-6.25 0l0 -21.515625l5.96875 0l0 2.515625q1.234375 -1.359375 3.078125 -2.09375q1.84375 -0.75 4.03125 -0.75zm23.249329 0q5.0 0 7.671875 2.390625q2.6875 2.375 2.6875 7.171875l0 12.28125l-5.84375 0l0 -2.6875q-1.765625 3.0 -6.5625 3.0q-2.46875 0 -4.296875 -0.828125q-1.8125 -0.84375 -2.78125 -2.3125q-0.953125 -1.484375 -0.953125 -3.375q0 -3.0 2.25 -4.71875q2.265625 -1.71875 6.984375 -1.71875l4.96875 0q0 -2.046875 -1.25 -3.140625q-1.234375 -1.09375 -3.71875 -1.09375q-1.71875 0 -3.375 0.546875q-1.65625 0.53125 -2.828125 1.453125l-2.234375 -4.359375q1.765625 -1.25 4.21875 -1.921875q2.453125 -0.6875 5.0625 -0.6875zm-0.484375 17.96875q1.609375 0 2.84375 -0.734375q1.234375 -0.75 1.765625 -2.1875l0 -2.203125l-4.28125 0q-3.84375 0 -3.84375 2.515625q0 1.203125 0.9375 1.90625q0.9375 0.703125 2.578125 0.703125zm30.367493 2.828125q-0.921875 0.6875 -2.265625 1.03125q-1.34375 0.328125 -2.8125 0.328125q-3.84375 0 -5.953125 -1.953125q-2.09375 -1.953125 -2.09375 -5.765625l0 -8.828125l-3.328125 0l0 -4.8125l3.328125 0l0 -5.234375l6.234375 0l0 5.234375l5.359375 0l0 4.8125l-5.359375 0l0 8.75q0 1.359375 0.703125 2.109375q0.703125 0.734375 1.984375 0.734375q1.484375 0 2.515625 -0.796875l1.6875 4.390625zm3.5093384 -20.46875l6.25 0l0 21.515625l-6.25 0l0 -21.515625zm3.125 -3.0q-1.71875 0 -2.796875 -1.0q-1.078125 -1.0 -1.078125 -2.484375q0 -1.484375 1.078125 -2.484375q1.078125 -1.0 2.796875 -1.0q1.71875 0 2.796875 0.96875q1.078125 0.953125 1.078125 2.390625q0 1.5625 -1.078125 2.59375q-1.078125 1.015625 -2.796875 1.015625zm19.164978 24.828125q-3.40625 0 -6.109375 -1.40625q-2.703125 -1.421875 -4.21875 -3.9375q-1.515625 -2.53125 -1.515625 -5.734375q0 -3.1875 1.515625 -5.703125q1.515625 -2.53125 4.21875 -3.953125q2.703125 -1.421875 6.109375 -1.421875q3.390625 0 6.0625 1.421875q2.6875 1.421875 4.203125 3.953125q1.53125 2.515625 1.53125 5.703125q0 3.203125 -1.53125 5.734375q-1.515625 2.515625 -4.203125 3.9375q-2.671875 1.40625 -6.0625 1.40625zm0 -5.109375q2.390625 0 3.921875 -1.625q1.546875 -1.625 1.546875 -4.34375q0 -2.71875 -1.546875 -4.328125q-1.53125 -1.625 -3.921875 -1.625q-2.40625 0 -3.96875 1.625q-1.5625 1.609375 -1.5625 4.328125q0 2.71875 1.5625 4.34375q1.5625 1.625 3.96875 1.625zm29.028076 -17.046875q4.0 0 6.453125 2.40625q2.46875 2.390625 2.46875 7.125l0 12.3125l-6.234375 0l0 -11.359375q0 -2.5625 -1.125 -3.8125q-1.109375 -1.265625 -3.234375 -1.265625q-2.359375 0 -3.765625 1.46875q-1.390625 1.453125 -1.390625 4.328125l0 10.640625l-6.25 0l0 -21.515625l5.96875 0l0 2.515625q1.234375 -1.359375 3.078125 -2.09375q1.84375 -0.75 4.03125 -0.75zm39.77246 20.796875q-0.921875 0.6875 -2.265625 1.03125q-1.34375 0.328125 -2.8125 0.328125q-3.84375 0 -5.953125 -1.953125q-2.09375 -1.953125 -2.09375 -5.765625l0 -8.828125l-3.328125 0l0 -4.8125l3.328125 0l0 -5.234375l6.234375 0l0 5.234375l5.359375 0l0 4.8125l-5.359375 0l0 8.75q0 1.359375 0.703125 2.109375q0.703125 0.734375 1.984375 0.734375q1.484375 0 2.515625 -0.796875l1.6875 4.390625zm13.079346 1.359375q-3.40625 0 -6.109375 -1.40625q-2.703125 -1.421875 -4.21875 -3.9375q-1.515625 -2.53125 -1.515625 -5.734375q0 -3.1875 1.515625 -5.703125q1.515625 -2.53125 4.21875 -3.953125q2.703125 -1.421875 6.109375 -1.421875q3.390625 0 6.0625 1.421875q2.6875 1.421875 4.203125 3.953125q1.53125 2.515625 1.53125 5.703125q0 3.203125 -1.53125 5.734375q-1.515625 2.515625 -4.203125 3.9375q-2.671875 1.40625 -6.0625 1.40625zm0 -5.109375q2.390625 0 3.921875 -1.625q1.546875 -1.625 1.546875 -4.34375q0 -2.71875 -1.546875 -4.328125q-1.53125 -1.625 -3.921875 -1.625q-2.40625 0 -3.96875 1.625q-1.5625 1.609375 -1.5625 4.328125q0 2.71875 1.5625 4.34375q1.5625 1.625 3.96875 1.625zm41.160583 3.75q-0.921875 0.6875 -2.265625 1.03125q-1.34375 0.328125 -2.8125 0.328125q-3.84375 0 -5.953125 -1.953125q-2.09375 -1.953125 -2.09375 -5.765625l0 -8.828125l-3.328125 0l0 -4.8125l3.328125 0l0 -5.234375l6.234375 0l0 5.234375l5.359375 0l0 4.8125l-5.359375 0l0 8.75q0 1.359375 0.703125 2.109375q0.703125 0.734375 1.984375 0.734375q1.484375 0 2.515625 -0.796875l1.6875 4.390625zm16.587524 -20.796875q4.0 0 6.453125 2.40625q2.46875 2.390625 2.46875 7.125l0 12.3125l-6.234375 0l0 -11.359375q0 -2.5625 -1.125 -3.8125q-1.109375 -1.265625 -3.234375 -1.265625q-2.359375 0 -3.765686 1.46875q-1.390625 1.453125 -1.390625 4.328125l0 10.640625l-6.25 0l0 -29.6875l6.25 0l0 10.40625q1.234375 -1.234375 2.984436 -1.890625q1.765625 -0.671875 3.84375 -0.671875zm35.880005 11.15625q0 0.125 -0.109375 1.6875l-16.28125 0q0.4375 2.0 2.078125 3.15625q1.640625 1.15625 4.078125 1.15625q1.6875 0 2.984375 -0.5q1.296875 -0.5 2.421875 -1.578125l3.3125 3.609375q-3.03125 3.46875 -8.875 3.46875q-3.640625 0 -6.453125 -1.40625q-2.796875 -1.421875 -4.3125 -3.9375q-1.515625 -2.53125 -1.515625 -5.734375q0 -3.15625 1.5 -5.6875q1.5 -2.546875 4.109375 -3.96875q2.625 -1.421875 5.875 -1.421875q3.15625 0 5.71875 1.359375q2.5625 1.359375 4.015625 3.90625q1.453125 2.53125 1.453125 5.890625zm-11.15625 -6.4375q-2.109375 0 -3.5625 1.203125q-1.4375 1.203125 -1.75 3.28125l10.59375 0q-0.3125 -2.046875 -1.765625 -3.265625q-1.4375 -1.21875 -3.515625 -1.21875zm44.91931 17.125l-5.390625 -7.796875l-0.328125 0l-5.640625 0l0 7.796875l-6.484375 0l0 -28.0l12.125 0q3.71875 0 6.453125 1.25q2.75 1.234375 4.21875 3.515625q1.484375 2.28125 1.484375 5.390625q0 3.125 -1.5 5.390625q-1.5 2.25 -4.25 3.453125l6.28125 9.0l-6.96875 0zm-0.109375 -17.84375q0 -2.359375 -1.53125 -3.609375q-1.515625 -1.265625 -4.4375 -1.265625l-5.28125 0l0 9.765625l5.28125 0q2.921875 0 4.4375 -1.28125q1.53125 -1.28125 1.53125 -3.609375zm32.306274 7.15625q0 0.125 -0.109375 1.6875l-16.28125 0q0.4375 2.0 2.078125 3.15625q1.640625 1.15625 4.078125 1.15625q1.6875 0 2.984375 -0.5q1.296875 -0.5 2.421875 -1.578125l3.3125 3.609375q-3.03125 3.46875 -8.875 3.46875q-3.640625 0 -6.453125 -1.40625q-2.796875 -1.421875 -4.3125 -3.9375q-1.515625 -2.53125 -1.515625 -5.734375q0 -3.15625 1.5 -5.6875q1.5 -2.546875 4.109375 -3.96875q2.625 -1.421875 5.875 -1.421875q3.15625 0 5.71875 1.359375q2.5625 1.359375 4.015625 3.90625q1.453125 2.53125 1.453125 5.890625zm-11.15625 -6.4375q-2.109375 0 -3.5625 1.203125q-1.4375 1.203125 -1.75 3.28125l10.59375 0q-0.3125 -2.046875 -1.765625 -3.265625q-1.4375 -1.21875 -3.515625 -1.21875zm37.52124 -4.390625l0 17.921875q0 5.90625 -3.078125 8.78125q-3.078125 2.890625 -9.0 2.890625q-3.125 0 -5.921875 -0.765625q-2.796875 -0.75 -4.640625 -2.1875l2.484375 -4.484375q1.359375 1.125 3.4375 1.78125q2.078125 0.65625 4.15625 0.65625q3.25 0 4.78125 -1.46875q1.546875 -1.453125 1.546875 -4.40625l0 -0.921875q-2.4375 2.671875 -6.796875 2.671875q-2.96875 0 -5.4375 -1.296875q-2.453125 -1.296875 -3.890625 -3.65625q-1.4375 -2.359375 -1.4375 -5.4375q0 -3.078125 1.4375 -5.4375q1.4375 -2.359375 3.890625 -3.65625q2.46875 -1.3125 5.4375 -1.3125q4.671875 0 7.109375 3.078125l0 -2.75l5.921875 0zm-11.796875 15.359375q2.484375 0 4.0625 -1.453125q1.578125 -1.46875 1.578125 -3.828125q0 -2.359375 -1.578125 -3.8125q-1.578125 -1.46875 -4.0625 -1.46875q-2.484375 0 -4.09375 1.46875q-1.59375 1.453125 -1.59375 3.8125q0 2.359375 1.59375 3.828125q1.609375 1.453125 4.09375 1.453125zm38.671875 -4.53125q0 0.125 -0.109375 1.6875l-16.28125 0q0.4375 2.0 2.078125 3.15625q1.640625 1.15625 4.078125 1.15625q1.6875 0 2.984375 -0.5q1.296875 -0.5 2.421875 -1.578125l3.3125 3.609375q-3.03125 3.46875 -8.875 3.46875q-3.640625 0 -6.453125 -1.40625q-2.796875 -1.421875 -4.3125 -3.9375q-1.515625 -2.53125 -1.515625 -5.734375q0 -3.15625 1.5 -5.6875q1.5 -2.546875 4.109375 -3.96875q2.625 -1.421875 5.875 -1.421875q3.15625 0 5.71875 1.359375q2.5625 1.359375 4.015625 3.90625q1.453125 2.53125 1.453125 5.890625zm-11.15625 -6.4375q-2.109375 0 -3.5625 1.203125q-1.4375 1.203125 -1.75 3.28125l10.59375 0q-0.3125 -2.046875 -1.765625 -3.265625q-1.4375 -1.21875 -3.515625 -1.21875zm28.39624 -4.71875q4.0 0 6.453125 2.40625q2.46875 2.390625 2.46875 7.125l0 12.3125l-6.234375 0l0 -11.359375q0 -2.5625 -1.125 -3.8125q-1.109375 -1.265625 -3.234375 -1.265625q-2.359375 0 -3.765625 1.46875q-1.390625 1.453125 -1.390625 4.328125l0 10.640625l-6.25 0l0 -21.515625l5.96875 0l0 2.515625q1.234375 -1.359375 3.078125 -2.09375q1.84375 -0.75 4.03125 -0.75zm28.452515 20.796875q-0.921875 0.6875 -2.265625 1.03125q-1.34375 0.328125 -2.8125 0.328125q-3.84375 0 -5.953125 -1.953125q-2.09375 -1.953125 -2.09375 -5.765625l0 -8.828125l-3.328125 0l0 -4.8125l3.328125 0l0 -5.234375l6.234375 0l0 5.234375l5.359375 0l0 4.8125l-5.359375 0l0 8.75q0 1.359375 0.703125 2.109375q0.703125 0.734375 1.984375 0.734375q1.484375 0 2.515625 -0.796875l1.6875 4.390625zm10.759399 1.359375q-2.6875 0 -5.25 -0.65625q-2.5625 -0.65625 -4.078125 -1.65625l2.078125 -4.484375q1.4375 0.921875 3.484375 1.5q2.046875 0.578125 4.0 0.578125q3.953125 0 3.953125 -1.953125q0 -0.921875 -1.078125 -1.3125q-1.078125 -0.40625 -3.3125 -0.6875q-2.640625 -0.40625 -4.359375 -0.921875q-1.71875 -0.515625 -2.984375 -1.828125q-1.265625 -1.328125 -1.265625 -3.765625q0 -2.046875 1.1875 -3.625q1.1875 -1.578125 3.4375 -2.453125q2.265625 -0.890625 5.34375 -0.890625q2.28125 0 4.53125 0.5q2.265625 0.5 3.75 1.390625l-2.078125 4.4375q-2.84375 -1.609375 -6.203125 -1.609375q-2.0 0 -3.0 0.5625q-1.0 0.5625 -1.0 1.4375q0 1.0 1.078125 1.40625q1.078125 0.40625 3.4375 0.765625q2.640625 0.4375 4.3125 0.9375q1.6875 0.5 2.921875 1.828125q1.25 1.3125 1.25 3.671875q0 2.0 -1.203125 3.5625q-1.203125 1.546875 -3.5 2.40625q-2.296875 0.859375 -5.453125 0.859375zm35.559937 0q-3.40625 0 -6.109375 -1.40625q-2.703125 -1.421875 -4.21875 -3.9375q-1.515625 -2.53125 -1.515625 -5.734375q0 -3.1875 1.515625 -5.703125q1.515625 -2.53125 4.21875 -3.953125q2.703125 -1.421875 6.109375 -1.421875q3.390625 0 6.0625 1.421875q2.6875 1.421875 4.203125 3.953125q1.53125 2.515625 1.53125 5.703125q0 3.203125 -1.53125 5.734375q-1.515625 2.515625 -4.203125 3.9375q-2.671875 1.40625 -6.0625 1.40625zm0 -5.109375q2.390625 0 3.921875 -1.625q1.546875 -1.625 1.546875 -4.34375q0 -2.71875 -1.546875 -4.328125q-1.53125 -1.625 -3.921875 -1.625q-2.40625 0 -3.96875 1.625q-1.5625 1.609375 -1.5625 4.328125q0 2.71875 1.5625 4.34375q1.5625 1.625 3.96875 1.625zm22.793701 -16.25l5.515625 0l0 4.8125l-5.359375 0l0 16.234375l-6.234375 0l0 -16.234375l-3.328125 0l0 -4.8125l3.328125 0l0 -0.953125q0 -3.6875 2.171875 -5.84375q2.1875 -2.15625 6.140625 -2.15625q1.40625 0 2.65625 0.296875q1.265625 0.296875 2.109375 0.859375l-1.640625 4.53125q-1.078125 -0.765625 -2.515625 -0.765625q-2.84375 0 -2.84375 3.125l0 0.90625z" fill-rule="nonzero"/><path fill="#00274c" d="m71.28628 244.26126q-0.921875 0.6875 -2.265625 1.03125q-1.34375 0.328125 -2.8125 0.328125q-3.84375 0 -5.953125 -1.953125q-2.09375 -1.953125 -2.09375 -5.765625l0 -8.828125l-3.328125 0l0 -4.8125l3.328125 0l0 -5.234375l6.234375 0l0 5.234375l5.359375 0l0 4.8125l-5.359375 0l0 8.75q0 1.359375 0.703125 2.109375q0.703125 0.734375 1.984375 0.734375q1.484375 0 2.515625 -0.796875l1.6875 4.390625zm16.587479 -20.796875q4.0 0 6.453125 2.40625q2.46875 2.390625 2.46875 7.125l0 12.3125l-6.234375 0l0 -11.359375q0 -2.5625 -1.125 -3.8125q-1.109375 -1.265625 -3.234375 -1.265625q-2.359375 0 -3.765625 1.46875q-1.390625 1.453125 -1.390625 4.328125l0 10.640625l-6.25 0l0 -29.6875l6.25 0l0 10.40625q1.234375 -1.234375 2.984375 -1.890625q1.765625 -0.671875 3.84375 -0.671875zm35.879974 11.15625q0 0.125 -0.109375 1.6875l-16.28125 0q0.4375 2.0 2.078125 3.15625q1.640625 1.15625 4.078125 1.15625q1.6875 0 2.984375 -0.5q1.296875 -0.5 2.421875 -1.578125l3.3125 3.609375q-3.03125 3.46875 -8.875 3.46875q-3.640625 0 -6.453125 -1.40625q-2.796875 -1.421875 -4.3125 -3.9375q-1.515625 -2.53125 -1.515625 -5.734375q0 -3.15625 1.5 -5.6875q1.5 -2.546875 4.109375 -3.96875q2.625 -1.421875 5.875 -1.421875q3.15625 0 5.71875 1.359375q2.5625 1.359375 4.015625 3.90625q1.453125 2.53125 1.453125 5.890625zm-11.15625 -6.4375q-2.109375 0 -3.5625 1.203125q-1.4375 1.203125 -1.75 3.28125l10.59375 0q-0.3125 -2.046875 -1.765625 -3.265625q-1.4375 -1.21875 -3.515625 -1.21875zm39.52871 17.609375q-6.0 0 -9.34375 -3.3125q-3.34375 -3.328125 -3.34375 -9.484375l0 -15.6875l6.484375 0l0 15.4375q0 7.515625 6.234375 7.515625q3.046875 0 4.640625 -1.8125q1.609375 -1.828125 1.609375 -5.703125l0 -15.4375l6.390625 0l0 15.6875q0 6.15625 -3.34375 9.484375q-3.328125 3.3125 -9.328125 3.3125zm31.707489 -22.328125q4.0 0 6.453125 2.40625q2.46875 2.390625 2.46875 7.125l0 12.3125l-6.234375 0l0 -11.359375q0 -2.5625 -1.125 -3.8125q-1.109375 -1.265625 -3.234375 -1.265625q-2.359375 0 -3.765625 1.46875q-1.390625 1.453125 -1.390625 4.328125l0 10.640625l-6.25 0l0 -21.515625l5.96875 0l0 2.515625q1.234375 -1.359375 3.078125 -2.09375q1.84375 -0.75 4.03125 -0.75zm14.561829 0.328125l6.25 0l0 21.515625l-6.25 0l0 -21.515625zm3.125 -3.0q-1.71875 0 -2.796875 -1.0q-1.078125 -1.0 -1.078125 -2.484375q0 -1.484375 1.078125 -2.484375q1.078125 -1.0 2.796875 -1.0q1.71875 0 2.796875 0.96875q1.078125 0.953125 1.078125 2.390625q0 1.5625 -1.078125 2.59375q-1.078125 1.015625 -2.796875 1.015625zm30.274384 3.0l-9.078125 21.515625l-6.4375 0l-9.03125 -21.515625l6.4375 0l5.953125 14.640625l6.15625 -14.640625l6.0 0zm23.038727 10.828125q0 0.125 -0.109375 1.6875l-16.28125 0q0.4375 2.0 2.078125 3.15625q1.640625 1.15625 4.078125 1.15625q1.6875 0 2.984375 -0.5q1.296875 -0.5 2.421875 -1.578125l3.3125 3.609375q-3.03125 3.46875 -8.875 3.46875q-3.640625 0 -6.453125 -1.40625q-2.796875 -1.421875 -4.3125 -3.9375q-1.515625 -2.53125 -1.515625 -5.734375q0 -3.15625 1.5 -5.6875q1.5 -2.546875 4.109375 -3.96875q2.625 -1.421875 5.875 -1.421875q3.15625 0 5.71875 1.359375q2.5625 1.359375 4.015625 3.90625q1.453125 2.53125 1.453125 5.890625zm-11.15625 -6.4375q-2.109375 0 -3.5625 1.203125q-1.4375 1.203125 -1.75 3.28125l10.59375 0q-0.3125 -2.046875 -1.765625 -3.265625q-1.4375 -1.21875 -3.515625 -1.21875zm21.286835 -1.5625q1.109375 -1.546875 3.015625 -2.34375q1.90625 -0.8125 4.375 -0.8125l0 5.765625q-1.03125 -0.078125 -1.390625 -0.078125q-2.6875 0 -4.203125 1.5q-1.515625 1.5 -1.515625 4.5l0 10.15625l-6.25 0l0 -21.515625l5.96875 0l0 2.828125zm18.441254 19.0q-2.6875 0 -5.25 -0.65625q-2.5625 -0.65625 -4.078125 -1.65625l2.078125 -4.484375q1.4375 0.921875 3.484375 1.5q2.046875 0.578125 4.0 0.578125q3.953125 0 3.953125 -1.953125q0 -0.921875 -1.078125 -1.3125q-1.078125 -0.40625 -3.3125 -0.6875q-2.640625 -0.40625 -4.359375 -0.921875q-1.71875 -0.515625 -2.984375 -1.828125q-1.265625 -1.328125 -1.265625 -3.765625q0 -2.046875 1.1875 -3.625q1.1875 -1.578125 3.4375 -2.453125q2.265625 -0.890625 5.34375 -0.890625q2.28125 0 4.53125 0.5q2.265625 0.5 3.75 1.390625l-2.078125 4.4375q-2.84375 -1.609375 -6.203125 -1.609375q-2.0 0 -3.0 0.5625q-1.0 0.5625 -1.0 1.4375q0 1.0 1.078125 1.40625q1.078125 0.40625 3.4375 0.765625q2.640625 0.4375 4.3125 0.9375q1.6875 0.5 2.921875 1.828125q1.25 1.3125 1.25 3.671875q0 2.0 -1.203125 3.5625q-1.203125 1.546875 -3.5 2.40625q-2.296875 0.859375 -5.453125 0.859375zm13.98996 -21.828125l6.25 0l0 21.515625l-6.25 0l0 -21.515625zm3.125 -3.0q-1.71875 0 -2.796875 -1.0q-1.078125 -1.0 -1.078125 -2.484375q0 -1.484375 1.078125 -2.484375q1.078125 -1.0 2.796875 -1.0q1.71875 0 2.796875 0.96875q1.078125 0.953125 1.078125 2.390625q0 1.5625 -1.078125 2.59375q-1.078125 1.015625 -2.796875 1.015625zm22.805634 23.46875q-0.921875 0.6875 -2.265625 1.03125q-1.34375 0.328125 -2.8125 0.328125q-3.84375 0 -5.953125 -1.953125q-2.09375 -1.953125 -2.09375 -5.765625l0 -8.828125l-3.328125 0l0 -4.8125l3.328125 0l0 -5.234375l6.234375 0l0 5.234375l5.359375 0l0 4.8125l-5.359375 0l0 8.75q0 1.359375 0.703125 2.109375q0.703125 0.734375 1.984375 0.734375q1.484375 0 2.515625 -0.796875l1.6875 4.390625zm24.46872 -20.46875l-9.71875 22.828125q-1.46875 3.734375 -3.65625 5.25q-2.171875 1.515625 -5.265625 1.515625q-1.671875 0 -3.3125 -0.515625q-1.640625 -0.515625 -2.6875 -1.4375l2.28125 -4.4375q0.71875 0.625 1.65625 0.984375q0.953125 0.375 1.875 0.375q1.28125 0 2.078125 -0.625q0.796875 -0.625 1.4375 -2.0625l0.078125 -0.203125l-9.3125 -21.671875l6.4375 0l6.03125 14.59375l6.078125 -14.59375l6.0 0zm24.130615 21.828125q-3.40625 0 -6.109375 -1.40625q-2.703125 -1.421875 -4.21875 -3.9375q-1.515625 -2.53125 -1.515625 -5.734375q0 -3.1875 1.515625 -5.703125q1.515625 -2.53125 4.21875 -3.953125q2.703125 -1.421875 6.109375 -1.421875q3.390625 0 6.0625 1.421875q2.6875 1.421875 4.203125 3.953125q1.53125 2.515625 1.53125 5.703125q0 3.203125 -1.53125 5.734375q-1.515625 2.515625 -4.203125 3.9375q-2.671875 1.40625 -6.0625 1.40625zm0 -5.109375q2.390625 0 3.921875 -1.625q1.546875 -1.625 1.546875 -4.34375q0 -2.71875 -1.546875 -4.328125q-1.53125 -1.625 -3.921875 -1.625q-2.40625 0 -3.96875 1.625q-1.5625 1.609375 -1.5625 4.328125q0 2.71875 1.5625 4.34375q1.5625 1.625 3.96875 1.625zm22.793732 -16.25l5.515625 0l0 4.8125l-5.359375 0l0 16.234375l-6.234375 0l0 -16.234375l-3.328125 0l0 -4.8125l3.328125 0l0 -0.953125q0 -3.6875 2.171875 -5.84375q2.1875 -2.15625 6.140625 -2.15625q1.40625 0 2.65625 0.296875q1.265625 0.296875 2.109375 0.859375l-1.640625 4.53125q-1.078125 -0.765625 -2.515625 -0.765625q-2.84375 0 -2.84375 3.125l0 0.90625zm45.878082 21.046875l-0.03125 -16.796875l-8.25 13.84375l-2.921875 0l-8.1875 -13.484375l0 16.4375l-6.09375 0l0 -28.0l5.375 0l10.46875 17.40625l10.328125 -17.40625l5.3125 0l0.078125 28.0l-6.078125 0zm12.278076 -21.515625l6.25 0l0 21.515625l-6.25 0l0 -21.515625zm3.125 -3.0q-1.71875 0 -2.796875 -1.0q-1.078125 -1.0 -1.078125 -2.484375q0 -1.484375 1.078125 -2.484375q1.078125 -1.0 2.796875 -1.0q1.71875 0 2.796875 0.96875q1.078125 0.953125 1.078125 2.390625q0 1.5625 -1.078125 2.59375q-1.078125 1.015625 -2.796875 1.015625zm19.321228 24.828125q-3.4375 0 -6.1875 -1.40625q-2.734375 -1.421875 -4.28125 -3.9375q-1.53125 -2.53125 -1.53125 -5.734375q0 -3.1875 1.53125 -5.703125q1.546875 -2.53125 4.28125 -3.953125q2.75 -1.421875 6.1875 -1.421875q3.40625 0 5.9375 1.421875q2.546875 1.421875 3.703125 4.0625l-4.84375 2.59375q-1.671875 -2.953125 -4.84375 -2.953125q-2.4375 0 -4.046875 1.609375q-1.59375 1.59375 -1.59375 4.34375q0 2.765625 1.59375 4.375q1.609375 1.59375 4.046875 1.59375q3.203125 0 4.84375 -2.96875l4.84375 2.640625q-1.15625 2.5625 -3.703125 4.0q-2.53125 1.4375 -5.9375 1.4375zm26.151855 -22.15625q4.0 0 6.453125 2.40625q2.46875 2.390625 2.46875 7.125l0 12.3125l-6.234375 0l0 -11.359375q0 -2.5625 -1.125 -3.8125q-1.109375 -1.265625 -3.234375 -1.265625q-2.359375 0 -3.765625 1.46875q-1.390625 1.453125 -1.390625 4.328125l0 10.640625l-6.25 0l0 -29.6875l6.25 0l0 10.40625q1.234375 -1.234375 2.984375 -1.890625q1.765625 -0.671875 3.84375 -0.671875zm14.561798 0.328125l6.25 0l0 21.515625l-6.25 0l0 -21.515625zm3.125 -3.0q-1.71875 0 -2.796875 -1.0q-1.078125 -1.0 -1.078125 -2.484375q0 -1.484375 1.078125 -2.484375q1.078125 -1.0 2.796875 -1.0q1.71875 0 2.796875 0.96875q1.078125 0.953125 1.078125 2.390625q0 1.5625 -1.078125 2.59375q-1.078125 1.015625 -2.796875 1.015625zm31.118103 3.0l0 17.921875q0 5.90625 -3.078125 8.78125q-3.078125 2.890625 -9.0 2.890625q-3.125 0 -5.921875 -0.765625q-2.796875 -0.75 -4.640625 -2.1875l2.484375 -4.484375q1.359375 1.125 3.4375 1.78125q2.078125 0.65625 4.15625 0.65625q3.25 0 4.78125 -1.46875q1.546875 -1.453125 1.546875 -4.40625l0 -0.921875q-2.4375 2.671875 -6.796875 2.671875q-2.96875 0 -5.4375 -1.296875q-2.453125 -1.296875 -3.890625 -3.65625q-1.4375 -2.359375 -1.4375 -5.4375q0 -3.078125 1.4375 -5.4375q1.4375 -2.359375 3.890625 -3.65625q2.46875 -1.3125 5.4375 -1.3125q4.671875 0 7.109375 3.078125l0 -2.75l5.921875 0zm-11.796875 15.359375q2.484375 0 4.0625 -1.453125q1.578125 -1.46875 1.578125 -3.828125q0 -2.359375 -1.578125 -3.8125q-1.578125 -1.46875 -4.0625 -1.46875q-2.484375 0 -4.09375 1.46875q-1.59375 1.453125 -1.59375 3.8125q0 2.359375 1.59375 3.828125q1.609375 1.453125 4.09375 1.453125zm26.28125 -15.6875q5.0 0 7.671875 2.390625q2.6875 2.375 2.6875 7.171875l0 12.28125l-5.84375 0l0 -2.6875q-1.765625 3.0 -6.5625 3.0q-2.46875 0 -4.296875 -0.828125q-1.8125 -0.84375 -2.78125 -2.3125q-0.953125 -1.484375 -0.953125 -3.375q0 -3.0 2.25 -4.71875q2.265625 -1.71875 6.984375 -1.71875l4.96875 0q0 -2.046875 -1.25 -3.140625q-1.234375 -1.09375 -3.71875 -1.09375q-1.71875 0 -3.375 0.546875q-1.65625 0.53125 -2.828125 1.453125l-2.234375 -4.359375q1.765625 -1.25 4.21875 -1.921875q2.453125 -0.6875 5.0625 -0.6875zm-0.484375 17.96875q1.609375 0 2.84375 -0.734375q1.234375 -0.75 1.765625 -2.1875l0 -2.203125l-4.28125 0q-3.84375 0 -3.84375 2.515625q0 1.203125 0.9375 1.90625q0.9375 0.703125 2.578125 0.703125zm29.554932 -17.96875q4.0 0 6.453125 2.40625q2.46875 2.390625 2.46875 7.125l0 12.3125l-6.234375 0l0 -11.359375q0 -2.5625 -1.125 -3.8125q-1.109375 -1.265625 -3.234375 -1.265625q-2.359375 0 -3.765625 1.46875q-1.390625 1.453125 -1.390625 4.328125l0 10.640625l-6.25 0l0 -21.515625l5.96875 0l0 2.515625q1.234375 -1.359375 3.078125 -2.09375q1.84375 -0.75 4.03125 -0.75zm16.968079 14.40625q1.671875 0 2.75 1.0625q1.09375 1.0625 1.09375 2.78125q0 0.796875 -0.203125 1.59375q-0.203125 0.796875 -0.875 2.40625l-2.28125 5.75l-3.96875 0l1.765625 -6.359375q-1.0 -0.390625 -1.578125 -1.296875q-0.578125 -0.90625 -0.578125 -2.09375q0 -1.71875 1.09375 -2.78125q1.09375 -1.0625 2.78125 -1.0625zm28.081238 -14.40625q5.0 0 7.671875 2.390625q2.6875 2.375 2.6875 7.171875l0 12.28125l-5.84375 0l0 -2.6875q-1.765625 3.0 -6.5625 3.0q-2.46875 0 -4.296875 -0.828125q-1.8125 -0.84375 -2.78125 -2.3125q-0.953125 -1.484375 -0.953125 -3.375q0 -3.0 2.25 -4.71875q2.265625 -1.71875 6.984375 -1.71875l4.96875 0q0 -2.046875 -1.25 -3.140625q-1.234375 -1.09375 -3.71875 -1.09375q-1.71875 0 -3.375 0.546875q-1.65625 0.53125 -2.828125 1.453125l-2.234375 -4.359375q1.765625 -1.25 4.21875 -1.921875q2.453125 -0.6875 5.0625 -0.6875zm-0.484375 17.96875q1.609375 0 2.84375 -0.734375q1.234375 -0.75 1.765625 -2.1875l0 -2.203125l-4.28125 0q-3.84375 0 -3.84375 2.515625q0 1.203125 0.9375 1.90625q0.9375 0.703125 2.578125 0.703125zm40.875 -17.96875q4.0 0 6.453125 2.40625q2.46875 2.390625 2.46875 7.125l0 12.3125l-6.234375 0l0 -11.359375q0 -2.5625 -1.125 -3.8125q-1.109375 -1.265625 -3.234375 -1.265625q-2.359375 0 -3.765625 1.46875q-1.390625 1.453125 -1.390625 4.328125l0 10.640625l-6.25 0l0 -21.515625l5.96875 0l0 2.515625q1.234375 -1.359375 3.078125 -2.09375q1.84375 -0.75 4.03125 -0.75zm25.051819 22.15625q-3.40625 0 -6.109375 -1.40625q-2.703125 -1.421875 -4.21875 -3.9375q-1.515625 -2.53125 -1.515625 -5.734375q0 -3.1875 1.515625 -5.703125q1.515625 -2.53125 4.21875 -3.953125q2.703125 -1.421875 6.109375 -1.421875q3.390625 0 6.0625 1.421875q2.6875 1.421875 4.203125 3.953125q1.53125 2.515625 1.53125 5.703125q0 3.203125 -1.53125 5.734375q-1.515625 2.515625 -4.203125 3.9375q-2.671875 1.40625 -6.0625 1.40625zm0 -5.109375q2.390625 0 3.921875 -1.625q1.546875 -1.625 1.546875 -4.34375q0 -2.71875 -1.546875 -4.328125q-1.53125 -1.625 -3.921875 -1.625q-2.40625 0 -3.96875 1.625q-1.5625 1.609375 -1.5625 4.328125q0 2.71875 1.5625 4.34375q1.5625 1.625 3.96875 1.625zm29.028076 -17.046875q4.0 0 6.453125 2.40625q2.46875 2.390625 2.46875 7.125l0 12.3125l-6.234375 0l0 -11.359375q0 -2.5625 -1.125 -3.8125q-1.109375 -1.265625 -3.234375 -1.265625q-2.359375 0 -3.765625 1.46875q-1.390625 1.453125 -1.390625 4.328125l0 10.640625l-6.25 0l0 -21.515625l5.96875 0l0 2.515625q1.234375 -1.359375 3.078125 -2.09375q1.84375 -0.75 4.03125 -0.75zm13.764954 8.078125l11.328125 0l0 5.0l-11.328125 0l0 -5.0zm28.955627 -8.078125q3.0 0 5.453125 1.390625q2.46875 1.375 3.859375 3.875q1.40625 2.5 1.40625 5.8125q0 3.328125 -1.40625 5.828125q-1.390625 2.5 -3.859375 3.875q-2.453125 1.375 -5.453125 1.375q-4.109375 0 -6.46875 -2.59375l0 10.046875l-6.25 0l0 -29.28125l5.96875 0l0 2.46875q2.3125 -2.796875 6.75 -2.796875zm-1.078125 17.046875q2.40625 0 3.9375 -1.625q1.546875 -1.625 1.546875 -4.34375q0 -2.71875 -1.546875 -4.328125q-1.53125 -1.625 -3.9375 -1.625q-2.390625 0 -3.9375 1.625q-1.53125 1.609375 -1.53125 4.328125q0 2.71875 1.53125 4.34375q1.546875 1.625 3.9375 1.625zm21.9281 -13.890625q1.109375 -1.546875 3.015625 -2.34375q1.90625 -0.8125 4.375 -0.8125l0 5.765625q-1.03125 -0.078125 -1.390625 -0.078125q-2.6875 0 -4.203125 1.5q-1.515625 1.5 -1.515625 4.5l0 10.15625l-6.25 0l0 -21.515625l5.96875 0l0 2.828125zm21.161255 19.0q-3.40625 0 -6.109375 -1.40625q-2.703125 -1.421875 -4.21875 -3.9375q-1.515625 -2.53125 -1.515625 -5.734375q0 -3.1875 1.515625 -5.703125q1.515625 -2.53125 4.21875 -3.953125q2.703125 -1.421875 6.109375 -1.421875q3.390625 0 6.0625 1.421875q2.6875 1.421875 4.203125 3.953125q1.53125 2.515625 1.53125 5.703125q0 3.203125 -1.53125 5.734375q-1.515625 2.515625 -4.203125 3.9375q-2.671875 1.40625 -6.0625 1.40625zm0 -5.109375q2.390625 0 3.921875 -1.625q1.546875 -1.625 1.546875 -4.34375q0 -2.71875 -1.546875 -4.328125q-1.53125 -1.625 -3.921875 -1.625q-2.40625 0 -3.96875 1.625q-1.5625 1.609375 -1.5625 4.328125q0 2.71875 1.5625 4.34375q1.5625 1.625 3.96875 1.625zm22.793701 -16.25l5.515625 0l0 4.8125l-5.359375 0l0 16.234375l-6.234375 0l0 -16.234375l-3.328125 0l0 -4.8125l3.328125 0l0 -0.953125q0 -3.6875 2.171875 -5.84375q2.1875 -2.15625 6.140625 -2.15625q1.40625 0 2.65625 0.296875q1.265625 0.296875 2.109375 0.859375l-1.640625 4.53125q-1.078125 -0.765625 -2.515625 -0.765625q-2.84375 0 -2.84375 3.125l0 0.90625zm11.84375 -0.46875l6.25 0l0 21.515625l-6.25 0l0 -21.515625zm3.125 -3.0q-1.71875 0 -2.796875 -1.0q-1.078125 -1.0 -1.078125 -2.484375q0 -1.484375 1.078125 -2.484375q1.078125 -1.0 2.796875 -1.0q1.71875 0 2.796875 0.96875q1.078125 0.953125 1.078125 2.390625q0 1.5625 -1.078125 2.59375q-1.078125 1.015625 -2.796875 1.015625zm22.798096 23.46875q-0.921875 0.6875 -2.265625 1.03125q-1.34375 0.328125 -2.8125 0.328125q-3.84375 0 -5.953125 -1.953125q-2.09375 -1.953125 -2.09375 -5.765625l0 -8.828125l-3.328125 0l0 -4.8125l3.328125 0l0 -5.234375l6.234375 0l0 5.234375l5.359375 0l0 4.8125l-5.359375 0l0 8.75q0 1.359375 0.703125 2.109375q0.703125 0.734375 1.984375 0.734375q1.484375 0 2.515625 -0.796875l1.6875 4.390625zm36.75122 -28.640625l0 29.6875l-5.953125 0l0 -2.484375q-2.328125 2.796875 -6.71875 2.796875q-3.046875 0 -5.515625 -1.359375q-2.453125 -1.359375 -3.859375 -3.875q-1.390625 -2.515625 -1.390625 -5.84375q0 -3.3125 1.390625 -5.828125q1.40625 -2.53125 3.859375 -3.890625q2.46875 -1.359375 5.515625 -1.359375q4.109375 0 6.4375 2.609375l0 -10.453125l6.234375 0zm-11.59375 24.890625q2.359375 0 3.921875 -1.625q1.5625 -1.625 1.5625 -4.34375q0 -2.71875 -1.5625 -4.328125q-1.5625 -1.625 -3.921875 -1.625q-2.40625 0 -3.96875 1.625q-1.546875 1.609375 -1.546875 4.328125q0 2.71875 1.546875 4.34375q1.5625 1.625 3.96875 1.625zm38.429993 -5.890625q0 0.125 -0.109375 1.6875l-16.28125 0q0.4375 2.0 2.078125 3.15625q1.640625 1.15625 4.078125 1.15625q1.6875 0 2.984375 -0.5q1.296875 -0.5 2.421875 -1.578125l3.3125 3.609375q-3.03125 3.46875 -8.875 3.46875q-3.640625 0 -6.453125 -1.40625q-2.796875 -1.421875 -4.3125 -3.9375q-1.515625 -2.53125 -1.515625 -5.734375q0 -3.15625 1.5 -5.6875q1.5 -2.546875 4.109375 -3.96875q2.625 -1.421875 5.875 -1.421875q3.15625 0 5.71875 1.359375q2.5625 1.359375 4.015625 3.90625q1.453125 2.53125 1.453125 5.890625zm-11.15625 -6.4375q-2.109375 0 -3.5625 1.203125q-1.4375 1.203125 -1.75 3.28125l10.59375 0q-0.3125 -2.046875 -1.765625 -3.265625q-1.4375 -1.21875 -3.515625 -1.21875zm37.23999 -12.5625l0 29.6875l-5.953125 0l0 -2.484375q-2.328125 2.796875 -6.71875 2.796875q-3.046875 0 -5.515625 -1.359375q-2.453125 -1.359375 -3.859375 -3.875q-1.390625 -2.515625 -1.390625 -5.84375q0 -3.3125 1.390625 -5.828125q1.40625 -2.53125 3.859375 -3.890625q2.46875 -1.359375 5.515625 -1.359375q4.109375 0 6.4375 2.609375l0 -10.453125l6.234375 0zm-11.59375 24.890625q2.359375 0 3.921875 -1.625q1.5625 -1.625 1.5625 -4.34375q0 -2.71875 -1.5625 -4.328125q-1.5625 -1.625 -3.921875 -1.625q-2.40625 0 -3.96875 1.625q-1.546875 1.609375 -1.546875 4.328125q0 2.71875 1.546875 4.34375q1.5625 1.625 3.96875 1.625zm17.351868 -16.71875l6.25 0l0 21.515625l-6.25 0l0 -21.515625zm3.125 -3.0q-1.71875 0 -2.796875 -1.0q-1.078125 -1.0 -1.078125 -2.484375q0 -1.484375 1.078125 -2.484375q1.078125 -1.0 2.796875 -1.0q1.71875 0 2.796875 0.96875q1.078125 0.953125 1.078125 2.390625q0 1.5625 -1.078125 2.59375q-1.078125 1.015625 -2.796875 1.015625zm19.321228 24.828125q-3.4375 0 -6.1875 -1.40625q-2.734375 -1.421875 -4.28125 -3.9375q-1.53125 -2.53125 -1.53125 -5.734375q0 -3.1875 1.53125 -5.703125q1.546875 -2.53125 4.28125 -3.953125q2.75 -1.421875 6.1875 -1.421875q3.40625 0 5.9375 1.421875q2.546875 1.421875 3.703125 4.0625l-4.84375 2.59375q-1.671875 -2.953125 -4.84375 -2.953125q-2.4375 0 -4.046875 1.609375q-1.59375 1.59375 -1.59375 4.34375q0 2.765625 1.59375 4.375q1.609375 1.59375 4.046875 1.59375q3.203125 0 4.84375 -2.96875l4.84375 2.640625q-1.15625 2.5625 -3.703125 4.0q-2.53125 1.4375 -5.9375 1.4375zm21.921204 -22.15625q5.0 0 7.671875 2.390625q2.6875 2.375 2.6875 7.171875l0 12.28125l-5.84375 0l0 -2.6875q-1.765625 3.0 -6.5625 3.0q-2.46875 0 -4.296875 -0.828125q-1.8125 -0.84375 -2.78125 -2.3125q-0.953125 -1.484375 -0.953125 -3.375q0 -3.0 2.25 -4.71875q2.265625 -1.71875 6.984375 -1.71875l4.96875 0q0 -2.046875 -1.25 -3.140625q-1.234375 -1.09375 -3.71875 -1.09375q-1.71875 0 -3.375 0.546875q-1.65625 0.53125 -2.828125 1.453125l-2.234375 -4.359375q1.765625 -1.25 4.21875 -1.921875q2.453125 -0.6875 5.0625 -0.6875zm-0.484375 17.96875q1.609375 0 2.84375 -0.734375q1.234375 -0.75 1.765625 -2.1875l0 -2.203125l-4.28125 0q-3.84375 0 -3.84375 2.515625q0 1.203125 0.9375 1.90625q0.9375 0.703125 2.578125 0.703125zm30.367554 2.828125q-0.921875 0.6875 -2.265625 1.03125q-1.34375 0.328125 -2.8125 0.328125q-3.84375 0 -5.953125 -1.953125q-2.09375 -1.953125 -2.09375 -5.765625l0 -8.828125l-3.328125 0l0 -4.8125l3.328125 0l0 -5.234375l6.234375 0l0 5.234375l5.359375 0l0 4.8125l-5.359375 0l0 8.75q0 1.359375 0.703125 2.109375q0.703125 0.734375 1.984375 0.734375q1.484375 0 2.515625 -0.796875l1.6875 4.390625zm23.90747 -9.640625q0 0.125 -0.109375 1.6875l-16.28125 0q0.4375 2.0 2.078125 3.15625q1.640625 1.15625 4.078125 1.15625q1.6875 0 2.984375 -0.5q1.296875 -0.5 2.421875 -1.578125l3.3125 3.609375q-3.03125 3.46875 -8.875 3.46875q-3.640625 0 -6.453125 -1.40625q-2.796875 -1.421875 -4.3125 -3.9375q-1.515625 -2.53125 -1.515625 -5.734375q0 -3.15625 1.5 -5.6875q1.5 -2.546875 4.109375 -3.96875q2.625 -1.421875 5.875 -1.421875q3.15625 0 5.71875 1.359375q2.5625 1.359375 4.015625 3.90625q1.453125 2.53125 1.453125 5.890625zm-11.15625 -6.4375q-2.109375 0 -3.5625 1.203125q-1.4375 1.203125 -1.75 3.28125l10.59375 0q-0.3125 -2.046875 -1.765625 -3.265625q-1.4375 -1.21875 -3.515625 -1.21875zm37.23999 -12.5625l0 29.6875l-5.953125 0l0 -2.484375q-2.328125 2.796875 -6.71875 2.796875q-3.046875 0 -5.515625 -1.359375q-2.453125 -1.359375 -3.859375 -3.875q-1.390625 -2.515625 -1.390625 -5.84375q0 -3.3125 1.390625 -5.828125q1.40625 -2.53125 3.859375 -3.890625q2.46875 -1.359375 5.515625 -1.359375q4.109375 0 6.4375 2.609375l0 -10.453125l6.234375 0zm-11.59375 24.890625q2.359375 0 3.921875 -1.625q1.5625 -1.625 1.5625 -4.34375q0 -2.71875 -1.5625 -4.328125q-1.5625 -1.625 -3.921875 -1.625q-2.40625 0 -3.96875 1.625q-1.546875 1.609375 -1.546875 4.328125q0 2.71875 1.546875 4.34375q1.5625 1.625 3.96875 1.625zm42.562378 3.75q-0.921875 0.6875 -2.265625 1.03125q-1.34375 0.328125 -2.8125 0.328125q-3.84375 0 -5.953125 -1.953125q-2.09375 -1.953125 -2.09375 -5.765625l0 -8.828125l-3.328125 0l0 -4.8125l3.328125 0l0 -5.234375l6.234375 0l0 5.234375l5.359375 0l0 4.8125l-5.359375 0l0 8.75q0 1.359375 0.703125 2.109375q0.703125 0.734375 1.984375 0.734375q1.484375 0 2.515625 -0.796875l1.6875 4.390625zm13.079346 1.359375q-3.40625 0 -6.109375 -1.40625q-2.703125 -1.421875 -4.21875 -3.9375q-1.515625 -2.53125 -1.515625 -5.734375q0 -3.1875 1.515625 -5.703125q1.515625 -2.53125 4.21875 -3.953125q2.703125 -1.421875 6.109375 -1.421875q3.390625 0 6.0625 1.421875q2.6875 1.421875 4.203125 3.953125q1.53125 2.515625 1.53125 5.703125q0 3.203125 -1.53125 5.734375q-1.515625 2.515625 -4.203125 3.9375q-2.671875 1.40625 -6.0625 1.40625zm0 -5.109375q2.390625 0 3.921875 -1.625q1.546875 -1.625 1.546875 -4.34375q0 -2.71875 -1.546875 -4.328125q-1.53125 -1.625 -3.921875 -1.625q-2.40625 0 -3.96875 1.625q-1.5625 1.609375 -1.5625 4.328125q0 2.71875 1.5625 4.34375q1.5625 1.625 3.96875 1.625zm35.957397 -17.046875q5.0 0 7.671875 2.390625q2.6875 2.375 2.6875 7.171875l0 12.28125l-5.84375 0l0 -2.6875q-1.765625 3.0 -6.5625 3.0q-2.46875 0 -4.296875 -0.828125q-1.8125 -0.84375 -2.78125 -2.3125q-0.953125 -1.484375 -0.953125 -3.375q0 -3.0 2.25 -4.71875q2.265625 -1.71875 6.984375 -1.71875l4.96875 0q0 -2.046875 -1.25 -3.140625q-1.234375 -1.09375 -3.71875 -1.09375q-1.71875 0 -3.375 0.546875q-1.65625 0.53125 -2.828125 1.453125l-2.234375 -4.359375q1.765625 -1.25 4.21875 -1.921875q2.453125 -0.6875 5.0625 -0.6875zm-0.484375 17.96875q1.609375 0 2.84375 -0.734375q1.234375 -0.75 1.765625 -2.1875l0 -2.203125l-4.28125 0q-3.84375 0 -3.84375 2.515625q0 1.203125 0.9375 1.90625q0.9375 0.703125 2.578125 0.703125zm16.476807 -17.640625l6.25 0l0 21.515625l-6.25 0l0 -21.515625zm3.125 -3.0q-1.71875 0 -2.796875 -1.0q-1.078125 -1.0 -1.078125 -2.484375q0 -1.484375 1.078125 -2.484375q1.078125 -1.0 2.796875 -1.0q1.71875 0 2.796875 0.96875q1.078125 0.953125 1.078125 2.390625q0 1.5625 -1.078125 2.59375q-1.078125 1.015625 -2.796875 1.015625zm30.836914 -5.171875l0 29.6875l-5.953125 0l0 -2.484375q-2.328125 2.796875 -6.71875 2.796875q-3.046875 0 -5.515625 -1.359375q-2.453125 -1.359375 -3.859375 -3.875q-1.390625 -2.515625 -1.390625 -5.84375q0 -3.3125 1.390625 -5.828125q1.40625 -2.53125 3.859375 -3.890625q2.46875 -1.359375 5.515625 -1.359375q4.109375 0 6.4375 2.609375l0 -10.453125l6.234375 0zm-11.59375 24.890625q2.359375 0 3.921875 -1.625q1.5625 -1.625 1.5625 -4.34375q0 -2.71875 -1.5625 -4.328125q-1.5625 -1.625 -3.921875 -1.625q-2.40625 0 -3.96875 1.625q-1.546875 1.609375 -1.546875 4.328125q0 2.71875 1.546875 4.34375q1.5625 1.625 3.96875 1.625zm17.351807 -16.71875l6.25 0l0 21.515625l-6.25 0l0 -21.515625zm3.125 -3.0q-1.71875 0 -2.796875 -1.0q-1.078125 -1.0 -1.078125 -2.484375q0 -1.484375 1.078125 -2.484375q1.078125 -1.0 2.796875 -1.0q1.71875 0 2.796875 0.96875q1.078125 0.953125 1.078125 2.390625q0 1.5625 -1.078125 2.59375q-1.078125 1.015625 -2.796875 1.015625zm21.993164 2.671875q4.0 0 6.453125 2.40625q2.46875 2.390625 2.46875 7.125l0 12.3125l-6.234375 0l0 -11.359375q0 -2.5625 -1.125 -3.8125q-1.109375 -1.265625 -3.234375 -1.265625q-2.359375 0 -3.765625 1.46875q-1.390625 1.453125 -1.390625 4.328125l0 10.640625l-6.25 0l0 -21.515625l5.96875 0l0 2.515625q1.234375 -1.359375 3.078125 -2.09375q1.84375 -0.75 4.03125 -0.75zm37.005005 0.328125l0 17.921875q0 5.90625 -3.078125 8.78125q-3.078125 2.890625 -9.0 2.890625q-3.125 0 -5.921875 -0.765625q-2.796875 -0.75 -4.640625 -2.1875l2.484375 -4.484375q1.359375 1.125 3.4375 1.78125q2.078125 0.65625 4.15625 0.65625q3.25 0 4.78125 -1.46875q1.546875 -1.453125 1.546875 -4.40625l0 -0.921875q-2.4375 2.671875 -6.796875 2.671875q-2.96875 0 -5.4375 -1.296875q-2.453125 -1.296875 -3.890625 -3.65625q-1.4375 -2.359375 -1.4375 -5.4375q0 -3.078125 1.4375 -5.4375q1.4375 -2.359375 3.890625 -3.65625q2.46875 -1.3125 5.4375 -1.3125q4.671875 0 7.109375 3.078125l0 -2.75l5.921875 0zm-11.796875 15.359375q2.484375 0 4.0625 -1.453125q1.578125 -1.46875 1.578125 -3.828125q0 -2.359375 -1.578125 -3.8125q-1.578125 -1.46875 -4.0625 -1.46875q-2.484375 0 -4.09375 1.46875q-1.59375 1.453125 -1.59375 3.8125q0 2.359375 1.59375 3.828125q1.609375 1.453125 4.09375 1.453125z" fill-rule="nonzero"/><path fill="#00274c" d="m364.68533 293.62064q-2.6875 0 -5.25 -0.65625q-2.5625 -0.65625 -4.078125 -1.65625l2.078125 -4.484375q1.4375 0.921875 3.484375 1.5q2.046875 0.578125 4.0 0.578125q3.953125 0 3.953125 -1.953125q0 -0.921875 -1.078125 -1.3125q-1.078125 -0.40625 -3.3125 -0.6875q-2.640625 -0.40625 -4.359375 -0.921875q-1.71875 -0.515625 -2.984375 -1.828125q-1.265625 -1.328125 -1.265625 -3.765625q0 -2.046875 1.1875 -3.625q1.1875 -1.578125 3.4375 -2.453125q2.265625 -0.890625 5.34375 -0.890625q2.28125 0 4.53125 0.5q2.265625 0.5 3.75 1.390625l-2.078125 4.4375q-2.84375 -1.609375 -6.203125 -1.609375q-2.0 0 -3.0 0.5625q-1.0 0.5625 -1.0 1.4375q0 1.0 1.078125 1.40625q1.078125 0.40625 3.4375 0.765625q2.640625 0.4375 4.3125 0.9375q1.6875 0.5 2.921875 1.828125q1.25 1.3125 1.25 3.671875q0 2.0 -1.203125 3.5625q-1.203125 1.546875 -3.5 2.40625q-2.296875 0.859375 -5.453125 0.859375zm27.880585 -1.359375q-0.921875 0.6875 -2.265625 1.03125q-1.34375 0.328125 -2.8125 0.328125q-3.84375 0 -5.953125 -1.953125q-2.09375 -1.953125 -2.09375 -5.765625l0 -8.828125l-3.328125 0l0 -4.8125l3.328125 0l0 -5.234375l6.234375 0l0 5.234375l5.359375 0l0 4.8125l-5.359375 0l0 8.75q0 1.359375 0.703125 2.109375q0.703125 0.734375 1.984375 0.734375q1.484375 0 2.515625 -0.796875l1.6875 4.390625zm25.196869 -20.46875l0 21.515625l-5.921875 0l0 -2.5625q-1.234375 1.40625 -2.96875 2.140625q-1.71875 0.734375 -3.71875 0.734375q-4.234375 0 -6.71875 -2.4375q-2.46875 -2.4375 -2.46875 -7.234375l0 -12.15625l6.234375 0l0 11.234375q0 5.203125 4.359375 5.203125q2.234375 0 3.59375 -1.453125q1.359375 -1.46875 1.359375 -4.34375l0 -10.640625l6.25 0zm27.714355 -8.171875l0 29.6875l-5.953125 0l0 -2.484375q-2.328125 2.796875 -6.71875 2.796875q-3.046875 0 -5.515625 -1.359375q-2.453125 -1.359375 -3.859375 -3.875q-1.390625 -2.515625 -1.390625 -5.84375q0 -3.3125 1.390625 -5.828125q1.40625 -2.53125 3.859375 -3.890625q2.46875 -1.359375 5.515625 -1.359375q4.109375 0 6.4375 2.609375l0 -10.453125l6.234375 0zm-11.59375 24.890625q2.359375 0 3.921875 -1.625q1.5625 -1.625 1.5625 -4.34375q0 -2.71875 -1.5625 -4.328125q-1.5625 -1.625 -3.921875 -1.625q-2.40625 0 -3.96875 1.625q-1.546875 1.609375 -1.546875 4.328125q0 2.71875 1.546875 4.34375q1.5625 1.625 3.96875 1.625zm38.429962 -5.890625q0 0.125 -0.109375 1.6875l-16.28125 0q0.4375 2.0 2.078125 3.15625q1.640625 1.15625 4.078125 1.15625q1.6875 0 2.984375 -0.5q1.296875 -0.5 2.421875 -1.578125l3.3125 3.609375q-3.03125 3.46875 -8.875 3.46875q-3.640625 0 -6.453125 -1.40625q-2.796875 -1.421875 -4.3125 -3.9375q-1.515625 -2.53125 -1.515625 -5.734375q0 -3.15625 1.5 -5.6875q1.5 -2.546875 4.109375 -3.96875q2.625 -1.421875 5.875 -1.421875q3.15625 0 5.71875 1.359375q2.5625 1.359375 4.015625 3.90625q1.453125 2.53125 1.453125 5.890625zm-11.15625 -6.4375q-2.109375 0 -3.5625 1.203125q-1.4375 1.203125 -1.75 3.28125l10.59375 0q-0.3125 -2.046875 -1.765625 -3.265625q-1.4375 -1.21875 -3.515625 -1.21875zm28.39624 -4.71875q4.0 0 6.453125 2.40625q2.46875 2.390625 2.46875 7.125l0 12.3125l-6.234375 0l0 -11.359375q0 -2.5625 -1.125 -3.8125q-1.109375 -1.265625 -3.234375 -1.265625q-2.359375 0 -3.765625 1.46875q-1.390625 1.453125 -1.390625 4.328125l0 10.640625l-6.25 0l0 -21.515625l5.96875 0l0 2.515625q1.234375 -1.359375 3.078125 -2.09375q1.84375 -0.75 4.03125 -0.75zm28.452454 20.796875q-0.921875 0.6875 -2.265625 1.03125q-1.34375 0.328125 -2.8125 0.328125q-3.84375 0 -5.953125 -1.953125q-2.09375 -1.953125 -2.09375 -5.765625l0 -8.828125l-3.328125 0l0 -4.8125l3.328125 0l0 -5.234375l6.234375 0l0 5.234375l5.359375 0l0 4.8125l-5.359375 0l0 8.75q0 1.359375 0.703125 2.109375q0.703125 0.734375 1.984375 0.734375q1.484375 0 2.515625 -0.796875l1.6875 4.390625zm25.079346 1.359375q-3.40625 0 -6.109375 -1.40625q-2.703125 -1.421875 -4.21875 -3.9375q-1.515625 -2.53125 -1.515625 -5.734375q0 -3.1875 1.515625 -5.703125q1.515625 -2.53125 4.21875 -3.953125q2.703125 -1.421875 6.109375 -1.421875q3.390625 0 6.0625 1.421875q2.6875 1.421875 4.203125 3.953125q1.53125 2.515625 1.53125 5.703125q0 3.203125 -1.53125 5.734375q-1.515625 2.515625 -4.203125 3.9375q-2.671875 1.40625 -6.0625 1.40625zm0 -5.109375q2.390625 0 3.921875 -1.625q1.546875 -1.625 1.546875 -4.34375q0 -2.71875 -1.546875 -4.328125q-1.53125 -1.625 -3.921875 -1.625q-2.40625 0 -3.96875 1.625q-1.5625 1.609375 -1.5625 4.328125q0 2.71875 1.5625 4.34375q1.5625 1.625 3.96875 1.625zm21.918762 -13.890625q1.109375 -1.546875 3.015625 -2.34375q1.90625 -0.8125 4.375 -0.8125l0 5.765625q-1.03125 -0.078125 -1.390625 -0.078125q-2.6875 0 -4.203125 1.5q-1.515625 1.5 -1.515625 4.5l0 10.15625l-6.25 0l0 -21.515625l5.96875 0l0 2.828125zm33.11438 -2.828125l0 17.921875q0 5.90625 -3.078125 8.78125q-3.078125 2.890625 -9.0 2.890625q-3.125 0 -5.921875 -0.765625q-2.796875 -0.75 -4.640625 -2.1875l2.484375 -4.484375q1.359375 1.125 3.4375 1.78125q2.078125 0.65625 4.15625 0.65625q3.25 0 4.78125 -1.46875q1.546875 -1.453125 1.546875 -4.40625l0 -0.921875q-2.4375 2.671875 -6.796875 2.671875q-2.96875 0 -5.4375 -1.296875q-2.453125 -1.296875 -3.890625 -3.65625q-1.4375 -2.359375 -1.4375 -5.4375q0 -3.078125 1.4375 -5.4375q1.4375 -2.359375 3.890625 -3.65625q2.46875 -1.3125 5.4375 -1.3125q4.671875 0 7.109375 3.078125l0 -2.75l5.921875 0zm-11.796875 15.359375q2.484375 0 4.0625 -1.453125q1.578125 -1.46875 1.578125 -3.828125q0 -2.359375 -1.578125 -3.8125q-1.578125 -1.46875 -4.0625 -1.46875q-2.484375 0 -4.09375 1.46875q-1.59375 1.453125 -1.59375 3.8125q0 2.359375 1.59375 3.828125q1.609375 1.453125 4.09375 1.453125zm26.281189 -15.6875q5.0 0 7.671875 2.390625q2.6875 2.375 2.6875 7.171875l0 12.28125l-5.84375 0l0 -2.6875q-1.765625 3.0 -6.5625 3.0q-2.46875 0 -4.296875 -0.828125q-1.8125 -0.84375 -2.78125 -2.3125q-0.953125 -1.484375 -0.953125 -3.375q0 -3.0 2.25 -4.71875q2.265625 -1.71875 6.984375 -1.71875l4.96875 0q0 -2.046875 -1.25 -3.140625q-1.234375 -1.09375 -3.71875 -1.09375q-1.71875 0 -3.375 0.546875q-1.65625 0.53125 -2.828125 1.453125l-2.234375 -4.359375q1.765625 -1.25 4.21875 -1.921875q2.453125 -0.6875 5.0625 -0.6875zm-0.484375 17.96875q1.609375 0 2.84375 -0.734375q1.234375 -0.75 1.765625 -2.1875l0 -2.203125l-4.28125 0q-3.84375 0 -3.84375 2.515625q0 1.203125 0.9375 1.90625q0.9375 0.703125 2.578125 0.703125zm29.554993 -17.96875q4.0 0 6.453125 2.40625q2.46875 2.390625 2.46875 7.125l0 12.3125l-6.234375 0l0 -11.359375q0 -2.5625 -1.125 -3.8125q-1.109375 -1.265625 -3.234375 -1.265625q-2.359375 0 -3.765625 1.46875q-1.390625 1.453125 -1.390625 4.328125l0 10.640625l-6.25 0l0 -21.515625l5.96875 0l0 2.515625q1.234375 -1.359375 3.078125 -2.09375q1.84375 -0.75 4.03125 -0.75zm14.561768 0.328125l6.25 0l0 21.515625l-6.25 0l0 -21.515625zm3.125 -3.0q-1.71875 0 -2.796875 -1.0q-1.078125 -1.0 -1.078125 -2.484375q0 -1.484375 1.078125 -2.484375q1.078125 -1.0 2.796875 -1.0q1.71875 0 2.796875 0.96875q1.078125 0.953125 1.078125 2.390625q0 1.5625 -1.078125 2.59375q-1.078125 1.015625 -2.796875 1.015625zm26.63379 19.71875l0 4.796875l-19.1875 0l0 -3.765625l10.953125 -12.953125l-10.671875 0l0 -4.796875l18.546875 0l0 3.75l-10.953125 12.96875l11.3125 0zm12.688721 -17.046875q5.0 0 7.671875 2.390625q2.6875 2.375 2.6875 7.171875l0 12.28125l-5.84375 0l0 -2.6875q-1.765625 3.0 -6.5625 3.0q-2.46875 0 -4.296875 -0.828125q-1.8125 -0.84375 -2.78125 -2.3125q-0.953125 -1.484375 -0.953125 -3.375q0 -3.0 2.25 -4.71875q2.265625 -1.71875 6.984375 -1.71875l4.96875 0q0 -2.046875 -1.25 -3.140625q-1.234375 -1.09375 -3.71875 -1.09375q-1.71875 0 -3.375 0.546875q-1.65625 0.53125 -2.828125 1.453125l-2.234375 -4.359375q1.765625 -1.25 4.21875 -1.921875q2.453125 -0.6875 5.0625 -0.6875zm-0.484375 17.96875q1.609375 0 2.84375 -0.734375q1.234375 -0.75 1.765625 -2.1875l0 -2.203125l-4.28125 0q-3.84375 0 -3.84375 2.515625q0 1.203125 0.9375 1.90625q0.9375 0.703125 2.578125 0.703125zm30.367432 2.828125q-0.921875 0.6875 -2.265625 1.03125q-1.34375 0.328125 -2.8125 0.328125q-3.84375 0 -5.953125 -1.953125q-2.09375 -1.953125 -2.09375 -5.765625l0 -8.828125l-3.328125 0l0 -4.8125l3.328125 0l0 -5.234375l6.234375 0l0 5.234375l5.359375 0l0 4.8125l-5.359375 0l0 8.75q0 1.359375 0.703125 2.109375q0.703125 0.734375 1.984375 0.734375q1.484375 0 2.515625 -0.796875l1.6875 4.390625zm3.5093994 -20.46875l6.25 0l0 21.515625l-6.25 0l0 -21.515625zm3.125 -3.0q-1.71875 0 -2.796875 -1.0q-1.078125 -1.0 -1.078125 -2.484375q0 -1.484375 1.078125 -2.484375q1.078125 -1.0 2.796875 -1.0q1.71875 0 2.796875 0.96875q1.078125 0.953125 1.078125 2.390625q0 1.5625 -1.078125 2.59375q-1.078125 1.015625 -2.796875 1.015625zm19.164917 24.828125q-3.40625 0 -6.109375 -1.40625q-2.703125 -1.421875 -4.21875 -3.9375q-1.515625 -2.53125 -1.515625 -5.734375q0 -3.1875 1.515625 -5.703125q1.515625 -2.53125 4.21875 -3.953125q2.703125 -1.421875 6.109375 -1.421875q3.390625 0 6.0625 1.421875q2.6875 1.421875 4.203125 3.953125q1.53125 2.515625 1.53125 5.703125q0 3.203125 -1.53125 5.734375q-1.515625 2.515625 -4.203125 3.9375q-2.671875 1.40625 -6.0625 1.40625zm0 -5.109375q2.390625 0 3.921875 -1.625q1.546875 -1.625 1.546875 -4.34375q0 -2.71875 -1.546875 -4.328125q-1.53125 -1.625 -3.921875 -1.625q-2.40625 0 -3.96875 1.625q-1.5625 1.609375 -1.5625 4.328125q0 2.71875 1.5625 4.34375q1.5625 1.625 3.96875 1.625zm29.028137 -17.046875q4.0 0 6.453125 2.40625q2.46875 2.390625 2.46875 7.125l0 12.3125l-6.234375 0l0 -11.359375q0 -2.5625 -1.125 -3.8125q-1.109375 -1.265625 -3.234375 -1.265625q-2.359375 0 -3.765625 1.46875q-1.390625 1.453125 -1.390625 4.328125l0 10.640625l-6.25 0l0 -21.515625l5.96875 0l0 2.515625q1.234375 -1.359375 3.078125 -2.09375q1.84375 -0.75 4.03125 -0.75zm21.811829 22.15625q-2.6875 0 -5.25 -0.65625q-2.5625 -0.65625 -4.078125 -1.65625l2.078125 -4.484375q1.4375 0.921875 3.484375 1.5q2.046875 0.578125 4.0 0.578125q3.953125 0 3.953125 -1.953125q0 -0.921875 -1.078125 -1.3125q-1.078125 -0.40625 -3.3125 -0.6875q-2.640625 -0.40625 -4.359375 -0.921875q-1.71875 -0.515625 -2.984375 -1.828125q-1.265625 -1.328125 -1.265625 -3.765625q0 -2.046875 1.1875 -3.625q1.1875 -1.578125 3.4375 -2.453125q2.265625 -0.890625 5.34375 -0.890625q2.28125 0 4.53125 0.5q2.265625 0.5 3.75 1.390625l-2.078125 4.4375q-2.84375 -1.609375 -6.203125 -1.609375q-2.0 0 -3.0 0.5625q-1.0 0.5625 -1.0 1.4375q0 1.0 1.078125 1.40625q1.078125 0.40625 3.4375 0.765625q2.640625 0.4375 4.3125 0.9375q1.6875 0.5 2.921875 1.828125q1.25 1.3125 1.25 3.671875q0 2.0 -1.203125 3.5625q-1.203125 1.546875 -3.5 2.40625q-2.296875 0.859375 -5.453125 0.859375zm25.310059 -30.0l6.25 0l0 29.6875l-6.25 0l0 -29.6875zm12.039917 8.171875l6.25 0l0 21.515625l-6.25 0l0 -21.515625zm3.125 -3.0q-1.71875 0 -2.796875 -1.0q-1.078125 -1.0 -1.078125 -2.484375q0 -1.484375 1.078125 -2.484375q1.078125 -1.0 2.796875 -1.0q1.71875 0 2.796875 0.96875q1.078125 0.953125 1.078125 2.390625q0 1.5625 -1.078125 2.59375q-1.078125 1.015625 -2.796875 1.015625zm18.16504 16.078125l-3.0 2.953125l0 5.484375l-6.25 0l0 -29.6875l6.25 0l0 16.8125l9.109375 -8.640625l7.453125 0l-8.96875 9.109375l9.765625 12.40625l-7.5625 0l-6.796875 -8.4375zm37.308105 -2.25q0 0.125 -0.109375 1.6875l-16.28125 0q0.4375 2.0 2.078125 3.15625q1.640625 1.15625 4.078125 1.15625q1.6875 0 2.984375 -0.5q1.296875 -0.5 2.421875 -1.578125l3.3125 3.609375q-3.03125 3.46875 -8.875 3.46875q-3.640625 0 -6.453125 -1.40625q-2.796875 -1.421875 -4.3125 -3.9375q-1.515625 -2.53125 -1.515625 -5.734375q0 -3.15625 1.5 -5.6875q1.5 -2.546875 4.109375 -3.96875q2.625 -1.421875 5.875 -1.421875q3.15625 0 5.71875 1.359375q2.5625 1.359375 4.015625 3.90625q1.453125 2.53125 1.453125 5.890625zm-11.15625 -6.4375q-2.109375 0 -3.5625 1.203125q-1.4375 1.203125 -1.75 3.28125l10.59375 0q-0.3125 -2.046875 -1.765625 -3.265625q-1.4375 -1.21875 -3.515625 -1.21875zm33.559937 -5.671875l0 7.390625l12.96875 0l0 5.203125l-12.96875 0l0 10.203125l-6.484375 0l0 -28.0l21.171875 0l0 5.203125l-14.6875 0zm23.64746 23.28125q-2.84375 0 -5.234375 -1.0625q-2.375 -1.0625 -3.890625 -3.015625l3.59375 -4.328125q2.28125 3.078125 5.203125 3.078125q3.96875 0 3.96875 -4.640625l0 -13.3125l-9.84375 0l0 -5.203125l16.28125 0l0 18.15625q0 5.15625 -2.5625 7.75q-2.5625 2.578125 -7.515625 2.578125zm28.59314 -28.484375q3.71875 0 6.453125 1.25q2.75 1.234375 4.21875 3.515625q1.484375 2.28125 1.484375 5.390625q0 3.078125 -1.484375 5.390625q-1.46875 2.296875 -4.21875 3.515625q-2.734375 1.21875 -6.453125 1.21875l-5.640625 0l0 7.71875l-6.484375 0l0 -28.0l12.125 0zm-0.359375 15.0q2.921875 0 4.4375 -1.25q1.53125 -1.265625 1.53125 -3.59375q0 -2.359375 -1.53125 -3.609375q-1.515625 -1.265625 -4.4375 -1.265625l-5.28125 0l0 9.71875l5.28125 0zm18.356201 13.3125q-1.640625 0 -2.765625 -1.109375q-1.109375 -1.125 -1.109375 -2.796875q0 -1.71875 1.109375 -2.78125q1.125 -1.0625 2.765625 -1.0625q1.640625 0 2.765625 1.0625q1.125 1.0625 1.125 2.78125q0 1.671875 -1.125 2.796875q-1.125 1.109375 -2.765625 1.109375z" fill-rule="nonzero"/><path fill="#00274c" d="m472.80582 351.94876q-4.453125 0 -8.015625 -1.859375q-3.546875 -1.859375 -5.578125 -5.203125q-2.015625 -3.34375 -2.015625 -7.578125q0 -4.234375 2.015625 -7.578125q2.03125 -3.34375 5.578125 -5.203125q3.5625 -1.859375 8.015625 -1.859375q4.078125 0 7.265625 1.4375q3.203125 1.4375 5.28125 4.15625l-5.953125 5.328125q-2.59375 -3.28125 -6.125 -3.28125q-2.953125 0 -4.75 1.90625q-1.796875 1.890625 -1.796875 5.09375q0 3.203125 1.796875 5.109375q1.796875 1.890625 4.75 1.890625q3.53125 0 6.125 -3.28125l5.953125 5.328125q-2.078125 2.71875 -5.28125 4.15625q-3.1875 1.4375 -7.265625 1.4375zm14.994354 -30.328125l9.046875 0l0 29.6875l-9.046875 0l0 -29.6875zm13.039978 7.8125l9.046875 0l0 21.875l-9.046875 0l0 -21.875zm4.515625 -1.765625q-2.4375 0 -3.9375 -1.296875q-1.5 -1.296875 -1.5 -3.296875q0 -2.0 1.5 -3.296875q1.5 -1.3125 3.9375 -1.3125q2.484375 0 3.953125 1.25q1.484375 1.234375 1.484375 3.1875q0 2.09375 -1.484375 3.4375q-1.46875 1.328125 -3.953125 1.328125zm20.289978 24.046875q-3.71875 0 -6.671875 -1.4375q-2.9375 -1.453125 -4.59375 -4.046875q-1.65625 -2.609375 -1.65625 -5.875q0 -3.28125 1.65625 -5.859375q1.65625 -2.59375 4.59375 -4.03125q2.953125 -1.4375 6.671875 -1.4375q4.0 0 6.828125 1.71875q2.84375 1.71875 3.921875 4.765625l-7.0 3.4375q-1.28125 -2.875 -3.796875 -2.875q-1.59375 0 -2.65625 1.125q-1.0625 1.109375 -1.0625 3.15625q0 2.078125 1.0625 3.203125q1.0625 1.109375 2.65625 1.109375q2.515625 0 3.796875 -2.875l7.0 3.4375q-1.078125 3.03125 -3.921875 4.765625q-2.828125 1.71875 -6.828125 1.71875zm23.318726 -7.125l-1.4375 1.5625l0 5.15625l-9.046875 0l0 -29.6875l9.046875 0l0 14.171875l6.265625 -6.359375l10.6875 0l-9.046875 9.46875l9.765625 12.40625l-10.921875 0l-5.3125 -6.71875zm45.23877 -15.5625q4.03125 0 6.484375 2.4375q2.46875 2.4375 2.46875 7.359375l0 12.484375l-9.03125 0l0 -10.921875q0 -3.765625 -2.6875 -3.765625q-1.515625 0 -2.453125 1.0625q-0.9375 1.0625 -0.9375 3.34375l0 10.28125l-9.046875 0l0 -29.6875l9.046875 0l0 9.5625q2.515625 -2.15625 6.15625 -2.15625zm36.558044 11.328125q0 0.1875 -0.125 2.109375l-15.203125 0q0.484375 1.25 1.609375 1.90625q1.125 0.65625 2.796875 0.65625q1.4375 0 2.421875 -0.359375q0.984375 -0.359375 2.140625 -1.234375l4.71875 4.75q-3.203125 3.53125 -9.5625 3.53125q-3.953125 0 -6.953125 -1.453125q-3.0 -1.46875 -4.640625 -4.0625q-1.640625 -2.609375 -1.640625 -5.84375q0 -3.28125 1.609375 -5.859375q1.625 -2.59375 4.4375 -4.03125q2.828125 -1.4375 6.34375 -1.4375q3.328125 0 6.0625 1.328125q2.75 1.3125 4.359375 3.875q1.625 2.5625 1.625 6.125zm-11.96875 -5.171875q-1.390625 0 -2.3125 0.765625q-0.921875 0.765625 -1.203125 2.15625l7.046875 0q-0.28125 -1.359375 -1.203125 -2.140625q-0.921875 -0.78125 -2.328125 -0.78125zm23.401245 -3.390625q2.40625 -2.765625 7.09375 -2.765625l0 8.0q-1.09375 -0.15625 -2.0 -0.15625q-4.640625 0 -4.640625 4.71875l0 9.71875l-9.046875 0l0 -21.875l8.59375 0l0 2.359375zm32.727478 8.5625q0 0.1875 -0.125 2.109375l-15.203125 0q0.484375 1.25 1.609375 1.90625q1.125 0.65625 2.796875 0.65625q1.4375 0 2.421875 -0.359375q0.984375 -0.359375 2.140625 -1.234375l4.71875 4.75q-3.203125 3.53125 -9.5625 3.53125q-3.953125 0 -6.953125 -1.453125q-3.0 -1.46875 -4.640625 -4.0625q-1.640625 -2.609375 -1.640625 -5.84375q0 -3.28125 1.609375 -5.859375q1.625 -2.59375 4.4375 -4.03125q2.828125 -1.4375 6.34375 -1.4375q3.328125 0 6.0625 1.328125q2.75 1.3125 4.359375 3.875q1.625 2.5625 1.625 6.125zm-11.96875 -5.171875q-1.390625 0 -2.3125 0.765625q-0.921875 0.765625 -1.203125 2.15625l7.046875 0q-0.28125 -1.359375 -1.203125 -2.140625q-0.921875 -0.78125 -2.328125 -0.78125zm42.932495 15.359375q-2.046875 1.171875 -5.5625 1.171875q-4.609375 0 -7.09375 -2.21875q-2.46875 -2.234375 -2.46875 -6.671875l0 -5.59375l-3.0 0l0 -6.609375l3.0 0l0 -6.109375l9.046875 0l0 6.109375l4.46875 0l0 6.609375l-4.46875 0l0 5.515625q0 1.0 0.515625 1.5625q0.515625 0.5625 1.359375 0.5625q1.15625 0 2.03125 -0.609375l2.171875 6.28125zm13.237427 1.171875q-3.640625 0 -6.546875 -1.453125q-2.890625 -1.46875 -4.53125 -4.046875q-1.640625 -2.59375 -1.640625 -5.859375q0 -3.28125 1.640625 -5.859375q1.640625 -2.59375 4.53125 -4.03125q2.90625 -1.4375 6.546875 -1.4375q3.671875 0 6.578125 1.4375q2.90625 1.4375 4.515625 4.03125q1.625 2.578125 1.625 5.859375q0 3.265625 -1.625 5.859375q-1.609375 2.578125 -4.515625 4.046875q-2.90625 1.453125 -6.578125 1.453125zm0 -7.046875q1.5625 0 2.5625 -1.140625q1.0 -1.140625 1.0 -3.171875q0 -2.046875 -1.0 -3.15625q-1.0 -1.125 -2.5625 -1.125q-1.5625 0 -2.5625 1.125q-1.0 1.109375 -1.0 3.15625q0 2.03125 1.0 3.171875q1.0 1.140625 2.5625 1.140625zm51.76062 -23.046875l0 29.6875l-8.609375 0l0 -1.796875q-1.953125 2.203125 -6.0 2.203125q-2.875 0 -5.296875 -1.375q-2.421875 -1.390625 -3.84375 -3.984375q-1.40625 -2.609375 -1.40625 -6.0q0 -3.40625 1.40625 -5.984375q1.421875 -2.578125 3.84375 -3.953125q2.421875 -1.390625 5.296875 -1.390625q3.640625 0 5.5625 1.875l0 -9.28125l9.046875 0zm-12.4375 23.046875q1.546875 0 2.546875 -1.140625q1.0 -1.140625 1.0 -3.171875q0 -2.046875 -1.0 -3.15625q-1.0 -1.125 -2.546875 -1.125q-1.5625 0 -2.5625 1.125q-1.0 1.109375 -1.0 3.15625q0 2.03125 1.0 3.171875q1.0 1.140625 2.5625 1.140625zm27.996826 7.046875q-3.640625 0 -6.546875 -1.453125q-2.890625 -1.46875 -4.53125 -4.046875q-1.640625 -2.59375 -1.640625 -5.859375q0 -3.28125 1.640625 -5.859375q1.640625 -2.59375 4.53125 -4.03125q2.90625 -1.4375 6.546875 -1.4375q3.671875 0 6.578125 1.4375q2.90625 1.4375 4.515625 4.03125q1.625 2.578125 1.625 5.859375q0 3.265625 -1.625 5.859375q-1.609375 2.578125 -4.515625 4.046875q-2.90625 1.453125 -6.578125 1.453125zm0 -7.046875q1.5625 0 2.5625 -1.140625q1.0 -1.140625 1.0 -3.171875q0 -2.046875 -1.0 -3.15625q-1.0 -1.125 -2.5625 -1.125q-1.5625 0 -2.5625 1.125q-1.0 1.109375 -1.0 3.15625q0 2.03125 1.0 3.171875q1.0 1.140625 2.5625 1.140625zm30.76062 -15.640625q4.03125 0 6.484375 2.4375q2.46875 2.4375 2.46875 7.359375l0 12.484375l-9.03125 0l0 -10.921875q0 -3.765625 -2.6875 -3.765625q-1.515625 0 -2.453125 1.0625q-0.9375 1.0625 -0.9375 3.34375l0 10.28125l-9.046875 0l0 -21.875l8.59375 0l0 2.15625q1.28125 -1.28125 2.953125 -1.921875q1.6875 -0.640625 3.65625 -0.640625zm22.673706 0q5.765625 0 8.796875 2.578125q3.046875 2.578125 3.046875 7.9375l0 11.765625l-8.40625 0l0 -2.875q-1.546875 3.28125 -6.1875 3.28125q-2.609375 0 -4.4375 -0.90625q-1.8125 -0.90625 -2.75 -2.4375q-0.9375 -1.546875 -0.9375 -3.46875q0 -3.234375 2.46875 -4.90625q2.484375 -1.6875 7.53125 -1.6875l3.640625 0q-0.4375 -2.5625 -4.125 -2.5625q-1.484375 0 -3.0 0.46875q-1.515625 0.453125 -2.59375 1.25l-2.890625 -5.953125q1.890625 -1.15625 4.546875 -1.8125q2.65625 -0.671875 5.296875 -0.671875zm-0.03125 17.234375q0.953125 0 1.703125 -0.515625q0.765625 -0.515625 1.125 -1.5625l0 -1.515625l-2.234375 0q-2.765625 0 -2.765625 1.84375q0 0.75 0.578125 1.25q0.59375 0.5 1.59375 0.5zm31.919434 4.28125q-2.046875 1.171875 -5.5625 1.171875q-4.609375 0 -7.09375 -2.21875q-2.46875 -2.234375 -2.46875 -6.671875l0 -5.59375l-3.0 0l0 -6.609375l3.0 0l0 -6.109375l9.046875 0l0 6.109375l4.46875 0l0 6.609375l-4.46875 0l0 5.515625q0 1.0 0.515625 1.5625q0.515625 0.5625 1.359375 0.5625q1.15625 0 2.03125 -0.609375l2.171875 6.28125zm24.956177 -10.1875q0 0.1875 -0.125 2.109375l-15.203125 0q0.484375 1.25 1.609375 1.90625q1.125 0.65625 2.796875 0.65625q1.4375 0 2.421875 -0.359375q0.984375 -0.359375 2.140625 -1.234375l4.71875 4.75q-3.203125 3.53125 -9.5625 3.53125q-3.953125 0 -6.953125 -1.453125q-3.0 -1.46875 -4.640625 -4.0625q-1.640625 -2.609375 -1.640625 -5.84375q0 -3.28125 1.609375 -5.859375q1.625 -2.59375 4.4375 -4.03125q2.828125 -1.4375 6.34375 -1.4375q3.328125 0 6.0625 1.328125q2.75 1.3125 4.359375 3.875q1.625 2.5625 1.625 6.125zm-11.96875 -5.171875q-1.390625 0 -2.3125 0.765625q-0.921875 0.765625 -1.203125 2.15625l7.046875 0q-0.28125 -1.359375 -1.203125 -2.140625q-0.921875 -0.78125 -2.328125 -0.78125z" fill-rule="nonzero"/></g></svg>