<svg version="1.1" viewBox="0.0 0.0 461.26246719160105 164.79002624671915" fill="none" stroke="none" stroke-linecap="square" stroke-miterlimit="10" xmlns:xlink="http://www.w3.org/1999/xlink" xmlns="http://www.w3.org/2000/svg"><clipPath id="p.0"><path d="m0 0l461.26248 0l0 164.79002l-461.26248 0l0 -164.79002z" clip-rule="nonzero"/></clipPath><g clip-path="url(#p.0)"><path fill="#000000" fill-opacity="0.0" d="m0 0l461.26248 0l0 164.79002l-461.26248 0z" fill-rule="evenodd"/><path fill="#000000" fill-opacity="0.0" d="m-270.41733 25.220472l149.92126 0l0 226.99213l-149.92126 0z" fill-rule="evenodd"/><path fill="#00274c" d="m0 27.202644l0 0c0 -15.023606 12.179038 -27.202644 27.202644 -27.202644l405.15378 0c7.2145996 0 14.1336975 2.8659847 19.235168 7.9674697c5.1015015 5.1014857 7.9674683 12.020584 7.9674683 19.235174l0 108.807304c0 15.023605 -12.179047 27.202652 -27.202637 27.202652l-405.15378 0c-15.023606 0 -27.202644 -12.179047 -27.202644 -27.202652z" fill-rule="evenodd"/><path stroke="#00274c" stroke-width="1.0" stroke-linejoin="round" stroke-linecap="butt" d="m0 27.202644l0 0c0 -15.023606 12.179038 -27.202644 27.202644 -27.202644l405.15378 0c7.2145996 0 14.1336975 2.8659847 19.235168 7.9674697c5.1015015 5.1014857 7.9674683 12.020584 7.9674683 19.235174l0 108.807304c0 15.023605 -12.179047 27.202652 -27.202637 27.202652l-405.15378 0c-15.023606 0 -27.202644 -12.179047 -27.202644 -27.202652z" fill-rule="evenodd"/><path fill="#000000" fill-opacity="0.0" d="m0 21.889763l459.55905 0l0 119.43307l-459.55905 0z" fill-rule="evenodd"/><path fill="#ffffff" d="m49.151825 117.899765q-9.8125 0 -17.640625 -4.15625q-7.8125 -4.15625 -12.28125 -11.5625q-4.46875 -7.421875 -4.46875 -16.796875q0 -9.375 4.46875 -16.78125q4.46875 -7.421875 12.28125 -11.578125q7.828125 -4.15625 17.640625 -4.15625q8.578125 0 15.453125 3.046875q6.890625 3.03125 11.4375 8.75l-11.25 10.171875q-6.078125 -7.3125 -14.734375 -7.3125q-5.09375 0 -9.078125 2.234375q-3.96875 2.234375 -6.15625 6.296875q-2.1875 4.0625 -2.1875 9.328125q0 5.265625 2.1875 9.34375q2.1875 4.0625 6.15625 6.296875q3.984375 2.21875 9.078125 2.21875q8.65625 0 14.734375 -7.3125l11.25 10.171875q-4.546875 5.71875 -11.4375 8.765625q-6.875 3.03125 -15.453125 3.03125zm64.94348 0q-9.90625 0 -17.8125 -4.1875q-7.90625 -4.203125 -12.421875 -11.609375q-4.515625 -7.421875 -4.515625 -16.71875q0 -9.296875 4.515625 -16.703125q4.515625 -7.421875 12.421875 -11.609375q7.90625 -4.203125 17.8125 -4.203125q9.921875 0 17.828125 4.203125q7.90625 4.1875 12.40625 11.609375q4.515625 7.40625 4.515625 16.703125q0 9.296875 -4.515625 16.71875q-4.5 7.40625 -12.40625 11.609375q-7.90625 4.1875 -17.828125 4.1875zm0 -14.65625q4.734375 0 8.578125 -2.21875q3.84375 -2.234375 6.078125 -6.296875q2.234375 -4.078125 2.234375 -9.34375q0 -5.265625 -2.234375 -9.328125q-2.234375 -4.0625 -6.078125 -6.296875q-3.84375 -2.234375 -8.578125 -2.234375q-4.734375 0 -8.578125 2.234375q-3.828125 2.234375 -6.0625 6.296875q-2.234375 4.0625 -2.234375 9.328125q0 5.265625 2.234375 9.34375q2.234375 4.0625 6.0625 6.296875q3.84375 2.21875 8.578125 2.21875zm105.31816 -49.125l-26.796875 62.53125l-17.421875 0l-26.703125 -62.53125l19.109375 0l16.984375 40.734375l17.328125 -40.734375l17.5 0zm3.6634216 0l17.6875 0l0 62.53125l-17.6875 0l0 -62.53125zm30.282211 0l29.578125 0q10.265625 0 18.21875 3.84375q7.953125 3.84375 12.328125 10.90625q4.375 7.046875 4.375 16.515625q0 9.46875 -4.375 16.53125q-4.375 7.046875 -12.328125 10.890625q-7.953125 3.84375 -18.21875 3.84375l-29.578125 0l0 -62.53125zm28.859375 48.421875q8.03125 0 12.890625 -4.546875q4.875 -4.5625 4.875 -12.609375q0 -8.03125 -4.875 -12.59375q-4.859375 -4.5625 -12.890625 -4.5625l-11.171875 0l0 34.3125l11.171875 0zm43.135498 -17.875l26.09375 0l0 13.046875l-26.09375 0l0 -13.046875zm58.15149 -30.546875l0 62.53125l-17.671875 0l0 -48.859375l-11.625 0l0 -13.671875l29.296875 0z" fill-rule="nonzero"/><path fill="#ffffff" d="m415.76144 52.868515q13.484375 0 21.25 7.953125q7.78125 7.953125 7.78125 22.859375q0 10.71875 -4.15625 18.453125q-4.15625 7.734375 -11.703125 11.75q-7.546875 4.015625 -17.453125 4.015625q-5.28125 0 -10.109375 -1.203125q-4.8125 -1.203125 -8.203125 -3.359375l6.421875 -12.671875q4.5625 3.203125 11.53125 3.203125q6.6875 0 10.84375 -3.703125q4.15625 -3.703125 4.875 -10.765625q-5.359375 4.5625 -14.03125 4.5625q-5.890625 0 -10.8125 -2.453125q-4.90625 -2.46875 -7.8125 -6.96875q-2.90625 -4.515625 -2.90625 -10.328125q0 -6.328125 3.265625 -11.203125q3.265625 -4.875 8.84375 -7.5q5.578125 -2.640625 12.375 -2.640625zm1.25 28.40625q3.84375 0 6.25 -2.1875q2.421875 -2.1875 2.421875 -5.765625q0 -3.484375 -2.375 -5.671875q-2.359375 -2.1875 -6.390625 -2.1875q-3.75 0 -6.125 2.15625q-2.359375 2.140625 -2.359375 5.796875q0 3.578125 2.359375 5.71875q2.375 2.140625 6.21875 2.140625z" fill-rule="nonzero"/></g></svg>