<svg version="1.1" viewBox="0.0 0.0 492.0813648293963 100.0" fill="none" stroke="none" stroke-linecap="square" stroke-miterlimit="10" xmlns:xlink="http://www.w3.org/1999/xlink" xmlns="http://www.w3.org/2000/svg"><clipPath id="p.0"><path d="m0 0l492.08136 0l0 100.0l-492.08136 0l0 -100.0z" clip-rule="nonzero"/></clipPath><g clip-path="url(#p.0)"><path fill="#000000" fill-opacity="0.0" d="m0 0l492.08136 0l0 100.0l-492.08136 0z" fill-rule="evenodd"/><path fill="#000000" fill-opacity="0.0" d="m-270.41733 25.220472l149.92126 0l0 226.99213l-149.92126 0z" fill-rule="evenodd"/><path fill="#ff0000" d="m0 16.667l0 0c0 -9.204929 7.46207 -16.667 16.667 -16.667l458.0676 0c4.420349 0 8.659668 1.7559824 11.785339 4.8816514c3.1256714 3.125669 4.881653 7.364985 4.881653 11.785349l0 66.666c0 9.204933 -7.4620667 16.667 -16.666992 16.667l-458.0676 0l0 0c-9.204929 0 -16.667 -7.4620667 -16.667 -16.667z" fill-rule="evenodd"/><path stroke="#ff0000" stroke-width="1.0" stroke-linejoin="round" stroke-linecap="butt" d="m0 16.667l0 0c0 -9.204929 7.46207 -16.667 16.667 -16.667l458.0676 0c4.420349 0 8.659668 1.7559824 11.785339 4.8816514c3.1256714 3.125669 4.881653 7.364985 4.881653 11.785349l0 66.666c0 9.204933 -7.4620667 16.667 -16.666992 16.667l-458.0676 0l0 0c-9.204929 0 -16.667 -7.4620667 -16.667 -16.667z" fill-rule="evenodd"/><path fill="#000000" fill-opacity="0.0" d="m-0.3372714 -18.425198l492.75592 0l0 110.4252l-492.75592 0z" fill-rule="evenodd"/><path fill="#ffffff" d="m51.92356 84.07855q-10.5625 0 -18.96875 -4.453125q-8.390623 -4.46875 -13.187498 -12.4375q-4.796876 -7.968754 -4.796876 -18.046879q0 -10.09375 4.796876 -18.046875q4.796875 -7.96875 13.187498 -12.4375q8.40625 -4.468749 18.96875 -4.468749q9.21875 0 16.609375 3.265624q7.390625 3.265625 12.296875 9.40625l-12.09375 10.953125q-6.53125 -7.875 -15.84375 -7.875q-5.46875 0 -9.75 2.40625q-4.265625 2.390625 -6.625 6.765625q-2.34375 4.359375 -2.34375 10.03125q0 5.65625 2.34375 10.03125q2.359375 4.359375 6.625 6.765629q4.28125 2.390625 9.75 2.390625q9.3125 0 15.84375 -7.859379l12.09375 10.937504q-4.90625 6.140625 -12.296875 9.40625q-7.390625 3.265625 -16.609375 3.265625zm69.798584 0q-10.65625 0 -19.15625 -4.515625q-8.5 -4.515625 -13.34375 -12.46875q-4.84375 -7.968754 -4.84375 -17.953129q0 -9.984375 4.84375 -17.953125q4.84375 -7.96875 13.34375 -12.484375q8.5 -4.515624 19.15625 -4.515624q10.656258 0 19.140633 4.515624q8.5 4.515625 13.34375 12.484375q4.859375 7.96875 4.859375 17.953125q0 9.984375 -4.859375 17.953129q-4.84375 7.953125 -13.34375 12.46875q-8.484375 4.515625 -19.140633 4.515625zm0 -15.75q5.09375 0 9.218758 -2.390625q4.125 -2.4062538 6.515625 -6.765629q2.40625 -4.375 2.40625 -10.03125q0 -5.671875 -2.40625 -10.03125q-2.390625 -4.375 -6.515625 -6.765625q-4.1250076 -2.40625 -9.218758 -2.40625q-5.09375 0 -9.21875 2.40625q-4.125 2.390625 -6.53125 6.765625q-2.390625 4.359375 -2.390625 10.03125q0 5.65625 2.390625 10.03125q2.40625 4.359375 6.53125 6.765629q4.125 2.390625 9.21875 2.390625zm113.17759 -52.79688l-28.796875 67.203125l-18.71875 0l-28.703125 -67.203125l20.546875 0l18.234375 43.78125l18.625 -43.78125l18.8125 0zm3.9397125 0l19.015594 0l0 67.203125l-19.015594 0l0 -67.203125zm32.543976 0l31.78125 0q11.03125 0 19.578125 4.140624q8.546875 4.125 13.25 11.703125q4.703125 7.578125 4.703125 17.765625q0 10.171875 -4.703125 17.765629q-4.703125 7.578125 -13.25 11.703125q-8.546875 4.125 -19.578125 4.125l-31.78125 0l0 -67.203125zm31.015625 52.031254q8.640625 0 13.859375 -4.890629q5.234375 -4.890625 5.234375 -13.53125q0 -8.640625 -5.234375 -13.53125q-5.21875 -4.90625 -13.859375 -4.90625l-12.0 0l0 36.85938l12.0 0zm46.362946 -19.203129l28.03125 0l0 14.015625l-28.03125 0l0 -14.015625zm62.493103 -32.828125l0 67.203125l-19.0 0l0 -52.51563l-12.484375 0l0 -14.687499l31.484375 0z" fill-rule="nonzero"/><path fill="#ffffff" d="m445.91635 14.187924q14.5 0 22.84375 8.546874q8.359375 8.546875 8.359375 24.578125q0 11.515625 -4.46875 19.828129q-4.46875 8.296875 -12.578125 12.625q-8.109375 4.3125 -18.765625 4.3125q-5.671875 0 -10.859375 -1.296875q-5.171875 -1.296875 -8.828125 -3.59375l6.921875 -13.640625q4.890625 3.453125 12.375 3.453125q7.203125 0 11.65625 -3.984375q4.46875 -3.9843788 5.25 -11.562504q-5.765625 4.890625 -15.078125 4.890625q-6.328125 0 -11.609375 -2.625q-5.28125 -2.640625 -8.40625 -7.484375q-3.125 -4.859375 -3.125 -11.09375q0 -6.828125 3.5 -12.046875q3.515625 -5.234375 9.515625 -8.0625q6.0 -2.843749 13.296875 -2.843749zm1.34375 30.53125q4.125 0 6.71875 -2.34375q2.59375 -2.359375 2.59375 -6.203125q0 -3.734375 -2.546875 -6.09375q-2.546875 -2.359375 -6.859375 -2.359375q-4.03125 0 -6.578125 2.3125q-2.546875 2.296875 -2.546875 6.234375q0 3.84375 2.546875 6.15625q2.546875 2.296875 6.671875 2.296875z" fill-rule="nonzero"/></g></svg>